<?xml version="1.0" encoding="utf-8"?>
<!-- Generator: Adobe Illustrator 16.0.0, SVG Export Plug-In . SVG Version: 6.00 Build 0)  -->
<!DOCTYPE svg PUBLIC "-//W3C//DTD SVG 1.1//EN" "http://www.w3.org/Graphics/SVG/1.1/DTD/svg11.dtd">
<svg version="1.1" id="Layer_1" xmlns="http://www.w3.org/2000/svg" xmlns:xlink="http://www.w3.org/1999/xlink" x="0px" y="0px"
	 width="120px" height="120px" viewBox="0 0 120 120" enable-background="new 0 0 120 120" xml:space="preserve">
<g id="fax">
	<path fill="#FFFFFF" d="M34.824,88.032v17.142c0,1.071,0.714,1.785,1.786,1.785h46.78c1.07,0,1.785-0.714,1.785-1.785V88.032
		V77.319c0-1.071-0.715-1.786-1.785-1.786H36.61c-1.072,0-1.786,0.715-1.786,1.786V88.032z M41.253,81.604H78.75v6.071H41.253
		V81.604z M41.253,94.104H78.75v6.069H41.253V94.104z"/>
	<polygon fill="#FFFFFF" points="84.818,31.609 84.818,13.041 34.824,13.041 34.824,31.609 34.824,44.109 84.818,44.109 	"/>
	<path fill="#FFFFFF" d="M97.318,31.609h-6.428v12.5v6.428H28.755v-6.428v-12.5h-6.429c-6.784,0-12.499,5.715-12.499,12.5v31.424
		c0,6.785,5.715,12.499,12.499,12.499h6.429V75.533v-6.427h62.491v6.427v12.499h6.43c6.784,0,12.497-5.714,12.497-12.499V44.466
		C109.817,37.324,104.104,31.609,97.318,31.609z"/>
</g>
</svg>
