<?xml version="1.0" encoding="utf-8"?>
<!-- Generator: Adobe Illustrator 16.0.0, SVG Export Plug-In . SVG Version: 6.00 Build 0)  -->
<!DOCTYPE svg PUBLIC "-//W3C//DTD SVG 1.1//EN" "http://www.w3.org/Graphics/SVG/1.1/DTD/svg11.dtd">
<svg version="1.1" id="Phone" xmlns="http://www.w3.org/2000/svg" xmlns:xlink="http://www.w3.org/1999/xlink" x="0px" y="0px"
	 width="120px" height="120px" viewBox="0 0 120 120" enable-background="new 0 0 120 120" xml:space="preserve">
<path fill="#FFFFFF" d="M58.182,70.379c-7.737-6.361-12.903-14.213-15.619-18.68l-2.026-3.82c0.708-0.76,6.111-6.544,8.452-9.683
	c2.943-3.941-1.324-7.501-1.324-7.501S35.663,18.691,32.928,16.311c-2.735-2.384-5.884-1.06-5.884-1.06
	c-5.749,3.714-11.708,6.944-12.066,22.475c-0.013,14.542,11.025,29.54,22.961,41.15c11.957,13.112,28.372,26.256,44.243,26.24
	c15.528-0.354,18.758-6.313,22.473-12.062c0,0,1.324-3.146-1.057-5.885c-2.385-2.736-14.39-14.74-14.39-14.74
	s-3.558-4.268-7.499-1.322c-2.938,2.195-8.213,7.08-9.484,8.265C72.229,79.377,63.402,74.672,58.182,70.379z"/>
</svg>
