<?xml version="1.0" encoding="utf-8"?>
<!-- Generator: Adobe Illustrator 16.0.0, SVG Export Plug-In . SVG Version: 6.00 Build 0)  -->
<!DOCTYPE svg PUBLIC "-//W3C//DTD SVG 1.1//EN" "http://www.w3.org/Graphics/SVG/1.1/DTD/svg11.dtd">
<svg version="1.1" id="圖層_1" xmlns="http://www.w3.org/2000/svg" xmlns:xlink="http://www.w3.org/1999/xlink" x="0px" y="0px"
	 width="36px" height="26px" viewBox="0 0 36 26" enable-background="new 0 0 36 26" xml:space="preserve">
<g>
	<g>
		<path fill="#FFFFFF" d="M0.496,22.808l15.39-9.076L0.428,4.618v17.637C0.428,22.444,0.455,22.63,0.496,22.808z"/>
		<path fill="#FFFFFF" d="M16.566,14.889L0.756,24.21c0.419,0.735,1.2,1.237,2.107,1.237h30.273c0.984,0,1.827-0.588,2.211-1.428
			l-15.486-9.131l-1.647,0.971L16.566,14.889z"/>
		<path fill="#FFFFFF" d="M35.572,22.255V4.871l-15.029,8.86l14.997,8.847C35.555,22.471,35.572,22.366,35.572,22.255z"/>
		<path fill="#FFFFFF" d="M2.863,0.553c-1.346,0-2.436,1.088-2.436,2.434v0.074l17.786,10.484L35.572,3.312V2.986
			c0-1.346-1.09-2.434-2.436-2.434H2.863z"/>
	</g>
</g>
</svg>
