<?xml version="1.0" encoding="utf-8"?>
<!-- Generator: Adobe Illustrator 16.0.0, SVG Export Plug-In . SVG Version: 6.00 Build 0)  -->
<!DOCTYPE svg PUBLIC "-//W3C//DTD SVG 1.1//EN" "http://www.w3.org/Graphics/SVG/1.1/DTD/svg11.dtd">
<svg version="1.1" id="圖層_1" xmlns="http://www.w3.org/2000/svg" xmlns:xlink="http://www.w3.org/1999/xlink" x="0px" y="0px"
	 width="120px" height="120px" viewBox="0 0 120 120" enable-background="new 0 0 120 120" xml:space="preserve">
<title></title>
<g id="_1">
	<path fill="#FFFFFF" d="M102.295,92.065H17.697c-1.884,0-3.411-1.526-3.411-3.411V31.347c0-1.884,1.527-3.411,3.411-3.411l0,0
		h84.598c1.885,0,3.411,1.527,3.411,3.411l0,0v57.307C105.706,90.539,104.18,92.065,102.295,92.065z M21.109,85.244h77.775V34.759
		H21.109V85.244z"/>
	<path fill="#FFFFFF" d="M59.996,76.147c-0.892-0.001-1.747-0.35-2.385-0.974L15.313,33.785c-1.347-1.318-1.369-3.479-0.05-4.826
		c1.318-1.346,3.479-1.368,4.826-0.049l0,0l39.908,39.05L99.91,28.91c1.347-1.319,3.507-1.297,4.826,0.049
		c1.318,1.348,1.296,3.508-0.051,4.826L62.387,75.174C61.747,75.8,60.891,76.147,59.996,76.147z"/>
	<path fill="#FFFFFF" d="M17.697,92.065c-1.884-0.007-3.405-1.54-3.397-3.424c0.002-0.96,0.412-1.874,1.125-2.519l30.443-27.506
		c1.369-1.295,3.527-1.234,4.822,0.135c1.294,1.367,1.234,3.526-0.135,4.821c-0.037,0.036-0.076,0.071-0.116,0.105L19.984,91.194
		C19.355,91.759,18.542,92.068,17.697,92.065z"/>
	<path fill="#FFFFFF" d="M102.292,92.065c-0.841-0.001-1.649-0.313-2.273-0.88L69.564,63.669c-1.369-1.295-1.429-3.454-0.135-4.822
		c1.253-1.324,3.324-1.43,4.705-0.24l30.454,27.516c1.398,1.264,1.509,3.421,0.244,4.817
		C104.186,91.661,103.262,92.068,102.292,92.065z"/>
</g>
</svg>
