<?xml version="1.0" encoding="utf-8"?>
<!-- Generator: Adobe Illustrator 16.0.0, SVG Export Plug-In . SVG Version: 6.00 Build 0)  -->
<!DOCTYPE svg PUBLIC "-//W3C//DTD SVG 1.1//EN" "http://www.w3.org/Graphics/SVG/1.1/DTD/svg11.dtd">
<svg version="1.1" id="圖層_1" xmlns="http://www.w3.org/2000/svg" xmlns:xlink="http://www.w3.org/1999/xlink" x="0px" y="0px"
	 width="268px" height="32px" viewBox="0 0 268 32" enable-background="new 0 0 268 32" xml:space="preserve">
<g>
	<rect y="0.174" fill="#0A4B91" width="268" height="31.652"/>
	<g>
		<path fill="#FFFFFF" d="M54.5,20.73h-1.28l-1.632-2.735c-0.347-0.587-0.664-0.97-0.948-1.152s-0.617-0.272-0.998-0.272h-0.959
			v4.16h-1.067v-9.722h2.862c0.891,0,1.601,0.229,2.128,0.688c0.527,0.459,0.791,1.091,0.791,1.898c0,1.343-0.718,2.216-2.153,2.617
			v0.025c0.267,0.117,0.489,0.271,0.662,0.458c0.174,0.188,0.434,0.562,0.781,1.117L54.5,20.73z M48.683,12.001v3.577h1.587
			c0.59,0,1.072-0.172,1.444-0.518c0.373-0.345,0.559-0.805,0.559-1.378c0-0.526-0.169-0.939-0.508-1.236
			c-0.339-0.297-0.833-0.445-1.481-0.445H48.683z"/>
		<path fill="#FFFFFF" d="M62.263,20.73h-5.109v-9.722h4.89v0.979h-3.823v3.308h3.534v0.979h-3.534v3.477h4.042V20.73z"/>
		<path fill="#FFFFFF" d="M72.963,20.73h-1.186l-1.055-2.761h-4.167L65.57,20.73h-1.193l3.741-9.722h1.086L72.963,20.73z
			 M70.358,16.99l-1.557-4.198c-0.042-0.117-0.09-0.331-0.145-0.641h-0.031c-0.046,0.284-0.099,0.498-0.157,0.641l-1.538,4.198
			H70.358z"/>
		<path fill="#FFFFFF" d="M75.698,20.73v-9.722h2.636c3.419,0,5.128,1.58,5.128,4.739c0,1.515-0.46,2.724-1.381,3.627
			c-0.92,0.904-2.203,1.355-3.847,1.355H75.698z M76.765,11.988v7.764h1.481c1.293,0,2.299-0.348,3.019-1.042
			c0.72-0.694,1.08-1.671,1.08-2.931c0-2.527-1.345-3.791-4.036-3.791H76.765z"/>
		<path fill="#FFFFFF" d="M99.954,20.73v-6.564c0-0.498,0.033-1.123,0.101-1.876h-0.031c-0.117,0.46-0.213,0.766-0.289,0.916
			l-3.39,7.524h-0.477l-3.383-7.475c-0.088-0.196-0.182-0.519-0.282-0.966H92.17c0.038,0.343,0.057,0.962,0.057,1.856v6.584h-1.042
			v-9.722h1.394l3.043,6.848c0.239,0.539,0.389,0.923,0.453,1.149h0.044c0.125-0.34,0.282-0.733,0.47-1.181l3.114-6.816h1.318v9.722
			H99.954z"/>
		<path fill="#FFFFFF" d="M104.239,15.986c0-1.561,0.424-2.808,1.271-3.74c0.848-0.934,1.993-1.4,3.437-1.4
			c1.339,0,2.417,0.457,3.236,1.369s1.227,2.087,1.227,3.527c0,1.551-0.414,2.798-1.24,3.74c-0.826,0.941-1.955,1.411-3.386,1.411
			c-1.369,0-2.468-0.457-3.298-1.374C104.654,18.604,104.239,17.425,104.239,15.986z M105.363,15.886
			c0,1.168,0.31,2.133,0.928,2.896c0.62,0.764,1.449,1.145,2.486,1.145c1.109,0,1.972-0.36,2.59-1.082
			c0.616-0.721,0.926-1.701,0.926-2.94c0-1.28-0.299-2.28-0.895-3c-0.596-0.719-1.441-1.079-2.532-1.079
			c-1.063,0-1.913,0.384-2.549,1.151C105.681,13.745,105.363,14.715,105.363,15.886z"/>
		<path fill="#FFFFFF" d="M123.513,20.73h-1.281l-1.632-2.735c-0.347-0.587-0.663-0.97-0.947-1.152
			c-0.285-0.183-0.617-0.272-0.998-0.272h-0.961v4.16h-1.067v-9.722h2.862c0.892,0,1.601,0.229,2.128,0.688
			c0.527,0.459,0.79,1.091,0.79,1.898c0,1.343-0.717,2.216-2.153,2.617v0.025c0.268,0.117,0.489,0.271,0.662,0.458
			c0.174,0.188,0.434,0.562,0.782,1.117L123.513,20.73z M117.694,12.001v3.577h1.588c0.59,0,1.071-0.172,1.444-0.518
			c0.373-0.345,0.559-0.805,0.559-1.378c0-0.526-0.17-0.939-0.509-1.236c-0.338-0.297-0.832-0.445-1.481-0.445H117.694z"/>
		<path fill="#FFFFFF" d="M131.275,20.73h-5.109v-9.722h4.89v0.979h-3.823v3.308h3.534v0.979h-3.534v3.477h4.042V20.73z"/>
		<path fill="#FFFFFF" d="M235.673,18.893c0.477-0.227,1.938-0.941,4.388-2.147V16.72c-0.536-0.292-1.999-1.105-4.388-2.44v-0.954
			l5.787,3.252v0.363l-5.787,2.919V18.893z"/>
	</g>
</g>
</svg>
