<?xml version="1.0" encoding="utf-8"?>
<!-- Generator: Adobe Illustrator 16.0.0, SVG Export Plug-In . SVG Version: 6.00 Build 0)  -->
<!DOCTYPE svg PUBLIC "-//W3C//DTD SVG 1.1//EN" "http://www.w3.org/Graphics/SVG/1.1/DTD/svg11.dtd">
<svg version="1.1" id="圖層_1" xmlns="http://www.w3.org/2000/svg" xmlns:xlink="http://www.w3.org/1999/xlink" x="0px" y="0px"
	 width="12px" height="12px" viewBox="0 0 12 12" enable-background="new 0 0 12 12" xml:space="preserve">
<g>
	<path fill="#727171" d="M10.619,11.999L8.146,9.525C8.14,9.529,8.134,9.533,8.129,9.537c-0.86,0.583-1.87,0.892-2.915,0.892
		C2.339,10.429,0,8.09,0,5.214C0,2.339,2.339,0,5.214,0s5.213,2.339,5.213,5.214c0,1.061-0.32,2.078-0.9,2.93L12,10.618
		L10.619,11.999z M5.214,1.954c-1.798,0-3.261,1.463-3.261,3.261c0,1.798,1.463,3.261,3.261,3.261c0.653,0,1.283-0.192,1.822-0.557
		c0.899-0.608,1.438-1.62,1.438-2.705C8.474,3.417,7.011,1.954,5.214,1.954z"/>
</g>
</svg>
