<svg id="圖層_1" data-name="圖層 1" xmlns="http://www.w3.org/2000/svg" viewBox="0 0 485.2 75.11"><defs><style>.cls-1{fill:#fff;}.cls-2{fill:#fca313;}</style></defs><title>logo</title><polygon class="cls-1" points="62 0 62 45.14 47.71 45.14 47.71 27.47 14.29 27.47 14.29 45.14 0 45.14 0 0 14.29 0 14.29 17.67 47.71 17.67 47.71 0 62 0"/><rect class="cls-1" x="70.54" width="62.01" height="9.81"/><rect class="cls-1" x="70.54" y="17.67" width="62.01" height="9.81"/><rect class="cls-1" x="70.54" y="35.33" width="62.01" height="9.81"/><rect class="cls-1" x="211.64" width="14.3" height="45.14"/><path class="cls-1" d="M203.1,0V32.45a12.3,12.3,0,0,1-.33,2.89,12.67,12.67,0,0,1-12.35,9.81A11.17,11.17,0,0,1,188.8,45v.11H141.09V27.47h14.3v7.86h24.4a9,9,0,0,0,9-9V0Z"/><path class="cls-2" d="M296,9.81A12.69,12.69,0,0,0,283.64,0,12.91,12.91,0,0,0,282,.1V0H234.49V45.14H282V45a12.91,12.91,0,0,0,1.61.1A12.69,12.69,0,0,0,296,35.33a12.3,12.3,0,0,0,.33-2.89V12.68A12.29,12.29,0,0,0,296,9.81ZM248.79,35.33V9.81H273a9,9,0,0,1,9,9v7.52a9,9,0,0,1-9,9Z"/><polygon class="cls-2" points="424.3 0 424.3 9.81 400.45 9.81 400.45 45.14 386.14 45.14 386.14 9.81 362.29 9.81 362.29 0 424.3 0"/><polygon class="cls-2" points="368.95 45.14 354.66 45.14 335.18 12.13 335.18 12.12 315.69 45.14 301.4 45.14 315.69 20.91 328.03 0 342.32 0 354.66 20.91 362.29 33.85 368.95 45.14"/><polygon class="cls-2" points="485.2 45.14 470.89 45.14 451.42 12.13 431.94 45.14 417.64 45.14 424.3 33.85 431.94 20.9 444.26 0 458.57 0 470.89 20.9 485.2 45.14"/><polygon class="cls-1" points="116.24 61.71 119.15 61.71 119.15 74.82 120.89 74.82 120.89 61.71 123.8 61.71 123.8 59.97 116.24 59.97 116.24 61.71"/><polygon class="cls-1" points="139.12 74.82 146.98 74.82 146.98 73.1 140.88 73.1 140.88 68.24 146.98 68.24 146.98 66.49 140.88 66.49 140.88 61.71 146.98 61.71 146.98 59.97 139.12 59.97 139.12 74.82"/><path class="cls-1" d="M169.85,61.41a5.67,5.67,0,0,1,2.68.62A6.33,6.33,0,0,1,174.67,64l0,.07h2.06l-.12-.23a7.65,7.65,0,0,0-2.8-3.06,7.82,7.82,0,0,0-6.84-.54,7.31,7.31,0,0,0-2.38,1.61,7.8,7.8,0,0,0-1.73,2.52,7.56,7.56,0,0,0-.59,3,7.68,7.68,0,0,0,2.19,5.57,7.73,7.73,0,0,0,9.3,1.2,7.5,7.5,0,0,0,2.73-2.93l.13-.23h-2l0,.07a5.87,5.87,0,0,1-2.06,1.83,5.72,5.72,0,0,1-2.65.61,5.39,5.39,0,0,1-4-1.76,6.09,6.09,0,0,1-1.67-4.33,5.84,5.84,0,0,1,1.68-4.16A5.41,5.41,0,0,1,169.85,61.41Z"/><polygon class="cls-1" points="200.44 66.49 193.85 66.49 193.85 59.97 192.1 59.97 192.1 74.82 193.85 74.82 193.85 68.19 200.44 68.19 200.44 74.82 202.19 74.82 202.19 59.97 200.44 59.97 200.44 66.49"/><polygon class="cls-1" points="227.2 72.36 219.47 59.97 217.51 59.97 217.51 74.82 219.24 74.82 219.08 62.41 226.81 74.82 228.77 74.82 228.77 59.97 227.03 59.97 227.2 72.36"/><path class="cls-1" d="M257,61.85a7.34,7.34,0,0,0-5.32-2.17,7.41,7.41,0,0,0-2.84.54,7.57,7.57,0,0,0-2.4,1.61,7.8,7.8,0,0,0-1.73,2.52,7.53,7.53,0,0,0-.6,3,7.72,7.72,0,0,0,2.17,5.56,7.2,7.2,0,0,0,5.37,2.25,7.41,7.41,0,0,0,5.66-2.51,7.41,7.41,0,0,0,1.47-2.4,8.32,8.32,0,0,0,.49-2.89,7.69,7.69,0,0,0-.57-3A7.52,7.52,0,0,0,257,61.85Zm.49,5.43a6.16,6.16,0,0,1-1.67,4.36,5.38,5.38,0,0,1-4.07,1.77,5.55,5.55,0,0,1-4.15-1.75,6,6,0,0,1-1.68-4.34,5.93,5.93,0,0,1,.58-2.53,6.11,6.11,0,0,1,1.59-2.09,5.56,5.56,0,0,1,1.67-1,5.43,5.43,0,0,1,1.89-.33,5.59,5.59,0,0,1,4.12,1.74A5.76,5.76,0,0,1,257.47,67.28Z"/><polygon class="cls-1" points="276.33 59.97 274.58 59.97 274.58 74.82 281.44 74.82 281.44 73.1 276.33 73.1 276.33 59.97"/><path class="cls-1" d="M309.66,61.85a7.34,7.34,0,0,0-5.32-2.17,7.41,7.41,0,0,0-2.84.54,7.57,7.57,0,0,0-2.4,1.61,7.8,7.8,0,0,0-1.73,2.52,7.53,7.53,0,0,0-.6,3,7.72,7.72,0,0,0,2.17,5.56,7.2,7.2,0,0,0,5.37,2.25A7.41,7.41,0,0,0,310,72.6a7.41,7.41,0,0,0,1.47-2.4,8.32,8.32,0,0,0,.49-2.89,7.69,7.69,0,0,0-.57-3A7.52,7.52,0,0,0,309.66,61.85Zm.49,5.43a6.16,6.16,0,0,1-1.67,4.36,5.38,5.38,0,0,1-4.07,1.77,5.55,5.55,0,0,1-4.15-1.75,6,6,0,0,1-1.68-4.34,5.93,5.93,0,0,1,.58-2.53,6.11,6.11,0,0,1,1.59-2.09,5.56,5.56,0,0,1,1.67-1,5.43,5.43,0,0,1,1.89-.33,5.59,5.59,0,0,1,4.12,1.74A5.76,5.76,0,0,1,310.14,67.28Z"/><path class="cls-1" d="M333.06,69.14h7.29a5.71,5.71,0,0,1-2,3,5.41,5.41,0,0,1-3.48,1.24,5.57,5.57,0,0,1-4.15-1.74,6,6,0,0,1-1.68-4.35,5.85,5.85,0,0,1,1.69-4.2,5.54,5.54,0,0,1,4.12-1.74,5.36,5.36,0,0,1,2.55.61,7,7,0,0,1,2.15,1.89l0,.06h2.1l-.13-.23a7.64,7.64,0,0,0-2.76-3,7.36,7.36,0,0,0-3.88-1,8,8,0,0,0-3,.53,7.31,7.31,0,0,0-2.44,1.62,7.8,7.8,0,0,0-1.73,2.52,7.56,7.56,0,0,0-.59,3,7.72,7.72,0,0,0,2.17,5.56,7.21,7.21,0,0,0,5.38,2.24A7.33,7.33,0,0,0,340.08,73a7.77,7.77,0,0,0,2.33-5.32v-.17h-9.36Z"/><polygon class="cls-1" points="367.01 59.97 363.36 67.32 359.74 59.97 357.75 59.97 362.49 69.3 362.49 74.82 364.21 74.82 364.19 69.39 368.95 59.97 367.01 59.97"/></svg>