<?xml version="1.0" encoding="utf-8"?>
<!-- Generator: Adobe Illustrator 16.0.0, SVG Export Plug-In . SVG Version: 6.00 Build 0)  -->
<!DOCTYPE svg PUBLIC "-//W3C//DTD SVG 1.1//EN" "http://www.w3.org/Graphics/SVG/1.1/DTD/svg11.dtd">
<svg version="1.1" id="圖層_1" xmlns="http://www.w3.org/2000/svg" xmlns:xlink="http://www.w3.org/1999/xlink" x="0px" y="0px"
	 width="282px" height="54px" viewBox="0 0 282 54" enable-background="new 0 0 282 54" xml:space="preserve">
<g>
	<g>
		<path fill="#D70B24" d="M97.635,44.967h1.306c0.117,0.728,0.508,1.091,1.176,1.091c0.665,0,1.129-0.155,1.403-0.468
			c0.269-0.313,0.406-1.192,0.406-2.632v-7.571h1.49v7.512c0,1.634-0.242,2.817-0.723,3.543c-0.482,0.727-1.337,1.092-2.568,1.092
			c-0.707,0-1.29-0.231-1.743-0.7C97.928,46.371,97.677,45.747,97.635,44.967"/>
		<path fill="#D70B24" d="M106.978,35.313c0.245,0,0.449,0.093,0.619,0.282c0.17,0.188,0.255,0.413,0.255,0.672
			c0,0.276-0.084,0.504-0.255,0.69c-0.17,0.19-0.374,0.283-0.619,0.283c-0.235,0-0.438-0.093-0.609-0.283
			c-0.171-0.187-0.255-0.414-0.255-0.69c0-0.265,0.083-0.489,0.251-0.674C106.53,35.405,106.739,35.313,106.978,35.313
			 M106.205,47.369v-7.438h-1.088v-1.309h2.503v8.746H106.205z"/>
		<path fill="#D70B24" d="M119.074,47.369v-5.536c0-1.376-0.539-2.064-1.619-2.064c-0.341,0-0.659,0.115-0.956,0.348
			c-0.301,0.229-0.5,0.496-0.609,0.788v6.465h-1.414v-6.214c0-0.428-0.148-0.765-0.439-1.015c-0.297-0.248-0.685-0.372-1.171-0.372
			c-0.277,0-0.576,0.12-0.896,0.363c-0.317,0.241-0.548,0.508-0.68,0.801v6.437h-1.414v-8.746h0.919l0.469,1.018
			c0.543-0.788,1.227-1.181,2.043-1.181c1.138,0,1.936,0.389,2.389,1.164c0.159-0.333,0.451-0.608,0.883-0.83
			c0.43-0.221,0.872-0.334,1.328-0.334c0.823,0,1.456,0.267,1.906,0.801c0.45,0.539,0.678,1.291,0.678,2.267v5.842H119.074z"/>
		<path fill="#D70B24" d="M130.77,46.814l0.543-1.501c0.276,0.224,0.622,0.41,1.036,0.558c0.411,0.15,0.784,0.223,1.112,0.223
			c0.579,0,1.045-0.174,1.399-0.523c0.348-0.351,0.522-0.793,0.522-1.33c0-0.404-0.094-0.779-0.291-1.123
			c-0.197-0.345-0.688-0.72-1.476-1.132l-0.877-0.449c-0.743-0.381-1.261-0.828-1.558-1.352c-0.293-0.524-0.443-1.156-0.443-1.889
			c0-0.899,0.287-1.643,0.866-2.226c0.578-0.591,1.313-0.885,2.216-0.885c1.202,0,2.043,0.218,2.514,0.653l-0.435,1.42
			c-0.2-0.159-0.502-0.315-0.911-0.466c-0.403-0.15-0.782-0.225-1.13-0.225c-0.505,0-0.901,0.155-1.193,0.473
			c-0.288,0.318-0.436,0.725-0.436,1.222c0,0.311,0.054,0.587,0.159,0.837c0.102,0.248,0.25,0.459,0.432,0.632
			c0.187,0.171,0.567,0.408,1.139,0.709l0.893,0.47c0.743,0.386,1.263,0.848,1.562,1.382c0.299,0.538,0.446,1.22,0.446,2.045
			c0,0.904-0.327,1.671-0.984,2.293c-0.655,0.627-1.533,0.939-2.634,0.939C132.278,47.569,131.453,47.317,130.77,46.814"/>
		<path fill="#D70B24" d="M143.372,47.369v-5.493c0-0.653-0.146-1.168-0.436-1.545c-0.294-0.374-0.704-0.563-1.231-0.563
			c-0.339,0-0.679,0.109-1.025,0.333c-0.342,0.223-0.606,0.479-0.79,0.77v6.498h-1.413V35.024h1.413v4.565
			c0.191-0.326,0.493-0.595,0.91-0.809c0.419-0.217,0.852-0.321,1.292-0.321c0.844,0,1.501,0.304,1.979,0.915
			c0.477,0.611,0.713,1.442,0.713,2.497v5.497H143.372z"/>
		<path fill="#D70B24" d="M148.229,35.313c0.247,0,0.453,0.093,0.622,0.282c0.168,0.188,0.255,0.413,0.255,0.672
			c0,0.276-0.087,0.504-0.255,0.69c-0.169,0.19-0.375,0.283-0.622,0.283c-0.235,0-0.437-0.093-0.608-0.283
			c-0.171-0.187-0.255-0.414-0.255-0.69c0-0.265,0.084-0.489,0.251-0.674C147.783,35.405,147.99,35.313,148.229,35.313
			 M147.457,47.369v-7.438h-1.088v-1.309h2.504v8.746H147.457z"/>
		<path fill="#D70B24" d="M156.024,47.369v-5.087c0-0.929-0.13-1.58-0.382-1.956c-0.256-0.373-0.686-0.558-1.282-0.558
			c-0.322,0-0.657,0.106-1.01,0.321c-0.351,0.215-0.619,0.474-0.808,0.781v6.498h-1.414v-8.746h0.969l0.445,1.121
			c0.467-0.856,1.223-1.284,2.282-1.284c1.743,0,2.611,1.165,2.611,3.5v5.409H156.024z"/>
		<polygon fill="#D70B24" points="167.824,36.858 167.824,47.369 166.334,47.369 166.334,36.858 162.868,36.858 162.868,35.387 
			171.446,35.387 171.446,36.858 		"/>
		<path fill="#D70B24" d="M175.235,40.124c-0.306-0.237-0.617-0.355-0.93-0.355c-0.499,0-0.935,0.255-1.306,0.762
			c-0.378,0.506-0.564,1.12-0.564,1.84v4.999h-1.413v-8.746h1.413v1.4c0.517-1.042,1.281-1.563,2.296-1.563
			c0.253,0,0.616,0.047,1.089,0.146L175.235,40.124z"/>
		<path fill="#D70B24" d="M181.179,43.059c-0.445-0.095-0.755-0.146-0.935-0.146c-0.714,0-1.296,0.204-1.744,0.605
			c-0.45,0.401-0.677,0.879-0.677,1.432c0,0.909,0.486,1.362,1.46,1.362c0.716,0,1.345-0.372,1.896-1.128V43.059z M181.313,46.368
			c-0.565,0.777-1.431,1.165-2.595,1.165c-0.62,0-1.165-0.248-1.621-0.751c-0.459-0.495-0.689-1.116-0.689-1.857
			c0-0.888,0.351-1.642,1.06-2.254c0.708-0.615,1.608-0.92,2.701-0.92c0.297,0,0.636,0.063,1.011,0.201
			c0-1.409-0.574-2.109-1.725-2.109c-0.881,0-1.558,0.265-2.035,0.797l-0.591-1.309c0.266-0.237,0.639-0.441,1.107-0.615
			c0.475-0.17,0.93-0.256,1.361-0.256c1.151,0,1.989,0.288,2.512,0.862c0.521,0.575,0.785,1.495,0.785,2.759v3.133
			c0,0.771,0.206,1.281,0.622,1.536v0.783c-0.576,0-1.005-0.092-1.291-0.271C181.642,47.081,181.438,46.781,181.313,46.368z"/>
		<path fill="#D70B24" d="M189.854,40.653c-0.353-0.59-0.838-0.885-1.456-0.885c-0.755,0-1.368,0.309-1.831,0.934
			c-0.471,0.622-0.704,1.413-0.704,2.376c0,2.106,0.869,3.163,2.609,3.163c0.222,0,0.489-0.078,0.801-0.233
			c0.31-0.156,0.504-0.321,0.581-0.497V40.653z M189.854,47.369v-0.652c-0.488,0.543-1.199,0.816-2.136,0.816
			c-0.994,0-1.803-0.394-2.421-1.179c-0.616-0.785-0.928-1.83-0.928-3.142c0-1.31,0.358-2.429,1.071-3.358
			c0.712-0.93,1.558-1.395,2.545-1.395c0.82,0,1.446,0.211,1.868,0.634v-4.069h1.416v12.345H189.854z"/>
		<path fill="#D70B24" d="M194.741,35.313c0.241,0,0.447,0.093,0.616,0.282c0.174,0.188,0.257,0.413,0.257,0.672
			c0,0.276-0.083,0.504-0.257,0.69c-0.169,0.19-0.375,0.283-0.616,0.283c-0.239,0-0.443-0.093-0.614-0.283
			c-0.171-0.187-0.253-0.414-0.253-0.69c0-0.265,0.082-0.489,0.249-0.674C194.294,35.405,194.496,35.313,194.741,35.313
			 M193.968,47.369v-7.438h-1.088v-1.309h2.502v8.746H193.968z"/>
		<path fill="#D70B24" d="M202.529,47.369v-5.087c0-0.929-0.122-1.58-0.381-1.956c-0.256-0.373-0.679-0.558-1.279-0.558
			c-0.319,0-0.658,0.106-1.009,0.321c-0.354,0.215-0.621,0.474-0.812,0.781v6.498h-1.412v-8.746h0.966l0.446,1.121
			c0.468-0.856,1.228-1.284,2.281-1.284c1.744,0,2.613,1.165,2.613,3.5v5.409H202.529z"/>
		<path fill="#D70B24" d="M208.641,39.714c-0.49,0-0.891,0.188-1.199,0.566c-0.313,0.377-0.465,0.84-0.465,1.387
			c0,0.605,0.147,1.109,0.447,1.506c0.299,0.396,0.706,0.596,1.217,0.596c0.502,0,0.893-0.193,1.176-0.58
			c0.282-0.385,0.423-0.891,0.423-1.521c0-0.547-0.155-1.01-0.456-1.387C209.477,39.902,209.1,39.714,208.641,39.714 M205.658,49.76
			l0.76-1.246c0.822,0.606,1.578,0.908,2.273,0.908c0.638,0,1.138-0.121,1.507-0.362c0.369-0.245,0.556-0.542,0.556-0.9
			c0-0.707-0.465-1.064-1.396-1.064c-0.163,0-0.45,0.045-0.866,0.138c-0.412,0.091-0.738,0.137-0.971,0.137
			c-1.132,0-1.693-0.471-1.693-1.414c0-0.291,0.133-0.557,0.396-0.788c0.265-0.238,0.593-0.409,0.981-0.513
			c-1.112-0.575-1.674-1.576-1.674-2.998c0-0.91,0.29-1.674,0.867-2.284c0.582-0.608,1.298-0.912,2.148-0.912
			c0.785,0,1.395,0.174,1.838,0.527l0.702-0.929l0.925,0.955l-0.854,0.704c0.36,0.514,0.544,1.185,0.544,2.019
			c0,0.885-0.253,1.623-0.748,2.223c-0.503,0.598-1.16,0.942-1.972,1.028l-1.164,0.13c-0.138,0.017-0.324,0.073-0.555,0.175
			c-0.232,0.099-0.346,0.232-0.346,0.399c0,0.222,0.24,0.334,0.724,0.334c0.211,0,0.545-0.045,0.992-0.129
			c0.451-0.084,0.783-0.128,1.003-0.128c0.78,0,1.391,0.206,1.83,0.619c0.435,0.413,0.655,0.981,0.655,1.712
			c0,0.805-0.331,1.458-0.982,1.958c-0.656,0.495-1.483,0.748-2.486,0.748c-0.517,0-1.058-0.103-1.622-0.307
			C206.457,50.296,206.002,50.05,205.658,49.76z"/>
		<path fill="#D70B24" d="M225.229,35.841l-0.502,1.391c-0.475-0.381-1.223-0.572-2.25-0.572c-0.956,0-1.724,0.451-2.303,1.354
			c-0.58,0.901-0.864,2.068-0.864,3.496c0,1.362,0.292,2.467,0.89,3.314c0.593,0.849,1.357,1.271,2.298,1.271
			c1.021,0,1.81-0.396,2.362-1.195l0.82,1.252c-0.869,0.944-1.978,1.419-3.333,1.419c-1.429,0-2.551-0.566-3.365-1.696
			c-0.82-1.127-1.226-2.612-1.226-4.46c0-1.783,0.433-3.266,1.308-4.452c0.87-1.182,2-1.775,3.383-1.775
			C223.63,35.186,224.556,35.403,225.229,35.841"/>
		<path fill="#D70B24" d="M228.236,42.973c0,2.193,0.705,3.287,2.114,3.287c0.662,0,1.177-0.294,1.552-0.88
			c0.372-0.59,0.559-1.388,0.559-2.407c0-2.161-0.704-3.241-2.11-3.241c-0.639,0-1.156,0.287-1.54,0.862
			C228.43,41.169,228.236,41.962,228.236,42.973 M226.743,42.973c0-1.348,0.334-2.437,0.995-3.268
			c0.663-0.83,1.533-1.245,2.612-1.245c1.143,0,2.028,0.396,2.657,1.19c0.631,0.797,0.945,1.905,0.945,3.322
			c0,1.416-0.324,2.526-0.968,3.338c-0.646,0.814-1.522,1.223-2.635,1.223c-1.135,0-2.02-0.411-2.651-1.234
			C227.062,45.479,226.743,44.368,226.743,42.973z"/>
		<path fill="#D70B24" d="M236.277,45.438c-0.22,0.24-0.329,0.528-0.329,0.863c0,0.341,0.109,0.634,0.329,0.869
			c0.216,0.241,0.477,0.363,0.783,0.363c0.31,0,0.566-0.122,0.786-0.363c0.217-0.235,0.322-0.528,0.322-0.869
			c0-0.335-0.105-0.623-0.322-0.863c-0.22-0.24-0.477-0.359-0.786-0.359C236.754,45.078,236.493,45.197,236.277,45.438"/>
		<path fill="#D70B24" d="M241.667,50.353l-0.38-0.593c0.861-0.767,1.291-1.423,1.291-1.968c0-0.237-0.073-0.475-0.222-0.711
			c-0.433-0.228-0.65-0.549-0.65-0.967c0-0.289,0.104-0.528,0.307-0.719c0.202-0.188,0.46-0.279,0.766-0.279
			c0.276,0,0.52,0.129,0.735,0.389c0.218,0.262,0.322,0.568,0.322,0.914c0,0.731-0.136,1.387-0.412,1.964
			C243.146,48.965,242.561,49.62,241.667,50.353"/>
		<polygon fill="#D70B24" points="246.722,47.369 246.722,35.387 248.215,35.387 248.215,45.896 253.124,45.896 253.124,47.369 		
			"/>
		<path fill="#D70B24" d="M254.814,44.812c0,0.784,0.216,1.431,0.652,1.95c0.436,0.514,0.966,0.771,1.596,0.771
			c0.7,0,1.344-0.081,1.929-0.246l-0.206-1.374c-0.391,0.209-0.764,0.309-1.13,0.309c-0.498,0-0.863-0.155-1.089-0.468
			c-0.226-0.313-0.34-0.836-0.34-1.572v-4.339h2.193v-1.22h-2.193v-2.438l-1.412,0.599v1.839h-0.919v1.22h0.919V44.812z"/>
		<path fill="#D70B24" d="M265.386,40.653c-0.36-0.59-0.846-0.885-1.464-0.885c-0.755,0-1.365,0.309-1.834,0.934
			c-0.465,0.622-0.697,1.413-0.697,2.376c0,2.106,0.871,3.163,2.607,3.163c0.219,0,0.49-0.078,0.801-0.233
			c0.31-0.156,0.507-0.321,0.587-0.497V40.653z M265.386,47.369v-0.652c-0.492,0.543-1.207,0.816-2.137,0.816
			c-0.995,0-1.807-0.394-2.421-1.179c-0.622-0.785-0.929-1.83-0.929-3.142c0-1.31,0.355-2.429,1.067-3.358
			c0.709-0.93,1.561-1.395,2.545-1.395c0.825,0,1.444,0.211,1.874,0.634v-4.069h1.413v12.345H265.386z"/>
		<path fill="#D70B24" d="M270.45,45.078c0.305,0,0.567,0.119,0.782,0.359c0.219,0.24,0.327,0.528,0.327,0.863
			c0,0.341-0.108,0.634-0.327,0.869c-0.215,0.241-0.478,0.363-0.782,0.363c-0.307,0-0.565-0.122-0.783-0.363
			c-0.221-0.235-0.329-0.528-0.329-0.869c0-0.335,0.108-0.623,0.329-0.863C269.885,45.197,270.144,45.078,270.45,45.078"/>
		<path fill="#2C4197" d="M109.059,16.604h-4.409v2.21h4.409V16.604z M109.059,13.66h-4.409v2.209h4.409V13.66z M107.989,27.945
			l-0.363-1.032c0.158,0,0.337,0.024,0.535,0.075c0.2,0,0.416,0.024,0.646,0.074c0.165-0.05,0.29-0.171,0.359-0.369
			c0.088-0.248,0.131-0.468,0.131-0.662v-4.417H107.5v7.657h-1.306v-7.657h-1.78v6.332h-1.196v-5.3
			c-0.429,0.441-0.722,0.93-0.877,1.471c-0.202,0.539-0.38,1.081-0.535,1.621l-0.839-0.295c0.075-0.54,0.152-1.056,0.239-1.546
			c0.072-0.54,0.149-1.056,0.237-1.546c-0.042-0.198-0.024-0.344,0.061-0.444c0.073-0.099,0.212-0.146,0.409-0.146
			c0.203,0,0.421,0.048,0.661,0.146c0.203,0.1,0.416,0.196,0.645,0.293v-1.323h2.976V19.7h-2.847v-6.777h2.373
			c0.086-0.295,0.164-0.589,0.239-0.882c0.042-0.295,0.118-0.589,0.235-0.887l0.471-0.07c0.169-0.053,0.37-0.027,0.597,0.07
			c0.205,0.101,0.325,0.298,0.364,0.591c-0.198,0.148-0.338,0.318-0.425,0.516c-0.117,0.195-0.209,0.416-0.282,0.662h3.445V19.7
			H107.5v1.176h3.099v4.712c-0.042,1.081-0.298,1.743-0.774,1.99C109.313,27.774,108.701,27.897,107.989,27.945z M98.107,26.326
			c-0.074-0.198-0.168-0.564-0.283-1.107c-0.083-0.488-0.185-0.86-0.299-1.104l-0.488-1.917l0.6-0.44
			c0.239,0.64,0.517,1.252,0.83,1.842c0.283,0.637,0.565,1.252,0.836,1.84c-0.243,0.148-0.461,0.295-0.66,0.439
			C98.454,26.031,98.273,26.176,98.107,26.326z M102.64,15.723c-0.442-0.346-0.839-0.736-1.196-1.184
			c-0.36-0.441-0.673-0.879-0.947-1.322l-2.139,3.386h3.794v0.884h-1.306v2.504h1.793v0.736h-1.793v6.186l2.026-0.587l-0.124,0.736
			c-0.596,0.196-1.527,0.635-2.783,1.325c-1.313,0.688-2.127,1.078-2.44,1.177c-0.198-0.048-0.363-0.193-0.488-0.44
			c-0.115-0.245-0.195-0.443-0.236-0.588c0.041-0.149,0.105-0.274,0.188-0.37c0.033-0.098,0.091-0.172,0.173-0.221
			c0.402-0.048,0.797-0.124,1.196-0.221c0.389-0.098,0.781-0.22,1.182-0.369v-6.627h-2.615v-0.736h2.615v-2.504H97.87v-0.295
			l-0.707,0.739l-0.599-0.59c0.672-0.884,1.27-1.841,1.794-2.874c0.512-1.028,0.988-2.135,1.418-3.315h1.43
			c0.199,0.739,0.458,1.426,0.773,2.064c0.316,0.687,0.691,1.326,1.131,1.915L102.64,15.723z"/>
		<path fill="#2C4197" d="M129.622,29.564c-0.794-0.786-1.506-1.619-2.135-2.505c-0.672-0.932-1.272-1.914-1.795-2.944
			c-0.43,1.081-1.02,2.06-1.779,2.944c-0.752,0.935-1.547,1.769-2.374,2.505l-0.596-0.884c0.512-0.394,1.022-0.81,1.54-1.254
			c0.482-0.489,0.882-1.052,1.197-1.691c0.198-0.49,0.473-1.202,0.83-2.133c0.359-0.983,0.557-1.646,0.599-1.988v-5.303h-0.486
			c-0.314,0.638-0.607,1.277-0.881,1.914c-0.285,0.638-0.581,1.276-0.897,1.916l-0.599-0.443c0.513-1.422,0.972-2.846,1.367-4.272
			c0.402-1.422,0.7-2.871,0.897-4.343l1.666,0.513l-1.302,3.978h4.28c0.117,0,0.23,0.049,0.346,0.151
			c0.123,0.146,0.206,0.341,0.235,0.587c-0.074,0.341-0.351,1.007-0.834,1.988c-0.513,0.931-0.906,1.642-1.181,2.136
			c-0.113-0.049-0.258-0.124-0.423-0.222c-0.118-0.098-0.252-0.173-0.407-0.221c0.114-0.346,0.333-0.909,0.659-1.693
			c0.315-0.835,0.494-1.4,0.536-1.695c0-0.049-0.023-0.097-0.067-0.146c0-0.1-0.02-0.147-0.062-0.147h-1.667v1.914
			c-0.042,2.358,0.214,4.295,0.77,5.819c0.555,1.521,1.525,3.067,2.915,4.638L129.622,29.564z M120.703,17.781v11.783h-1.305V17.781
			h-1.666v1.474c0,1.916-0.179,3.658-0.536,5.229c-0.357,1.52-0.929,3.116-1.718,4.786l-0.361-0.734
			c0.203-0.688,0.435-1.623,0.711-2.801c0.279-1.128,0.442-2.062,0.486-2.798V12.186c0.228,0.048,0.465,0.075,0.708,0.075
			c0.238,0.046,0.477,0.07,0.709,0.07c0.637-0.048,1.294-0.193,1.965-0.438c0.673-0.246,1.326-0.441,1.965-0.589l0.82,1.473
			c-0.789,0.192-1.581,0.344-2.377,0.441c-0.826,0.097-1.621,0.146-2.373,0.146v3.682h4.875v0.736H120.703z"/>
		<path fill="#2C4197" d="M145.176,17.781l-0.483-0.882l1.429,0.146c0.241-0.05,0.478-0.196,0.712-0.441
			c0.196-0.293,0.316-0.587,0.359-0.881l0.126-3.096h-1.666c-0.314,1.178-0.773,2.186-1.37,3.019
			c-0.628,0.838-1.401,1.449-2.313,1.842l-0.363-0.589c0.754-0.49,1.333-1.081,1.732-1.769c0.386-0.736,0.725-1.568,1.006-2.503
			h-2.264v-0.734h6.542c0,0.834-0.063,1.912-0.188,3.237c-0.114,1.328-0.528,2.161-1.242,2.505c-0.313,0.049-0.65,0.073-1.007,0.073
			C145.872,17.759,145.536,17.781,145.176,17.781 M145.29,23.821h-7.49v1.768h7.49V23.821z M145.29,21.317h-7.49v1.769h7.49V21.317z
			 M145.29,18.812h-7.49v1.771h7.49V18.812z M148.024,29.713c-0.828-0.296-1.637-0.638-2.436-1.032
			c-0.788-0.44-1.557-0.932-2.317-1.472c0.12-0.149,0.234-0.295,0.348-0.441c0.128-0.149,0.248-0.298,0.367-0.444h-4.521
			c0.046,0.198,0.144,0.346,0.301,0.444c0.117,0.146,0.214,0.292,0.3,0.441l-0.125,0.295c-0.789,0.441-1.58,0.833-2.378,1.177
			c-0.785,0.395-1.577,0.736-2.374,1.032l-0.597-1.032c0.668-0.344,1.348-0.712,2.028-1.102c0.671-0.397,1.345-0.811,2.015-1.255
			h-2.141v-8.247h10.099v8.247h-1.901c0.554,0.492,1.152,0.934,1.792,1.327c0.63,0.343,1.341,0.637,2.139,0.886L148.024,29.713z
			 M140.174,17.488l-0.47-1.177l-3.806,1.621c-0.119,0-0.234,0.071-0.346,0.218c-0.13,0.149-0.25,0.271-0.363,0.367
			c-0.201-0.193-0.379-0.414-0.536-0.66c-0.116-0.248-0.174-0.467-0.174-0.664c0.117-0.147,0.254-0.244,0.413-0.293
			c0.112-0.097,0.255-0.195,0.422-0.295v-4.273l0.108-0.145l0.13-0.146l0.83,0.146c0.671-0.049,1.364-0.246,2.078-0.592
			c0.715-0.34,1.207-0.513,1.48-0.513c0.125,0,0.3,0.099,0.532,0.292c0.241,0.15,0.385,0.322,0.427,0.519
			c-0.042,0.098-0.105,0.17-0.191,0.219c-0.071,0.053-0.129,0.075-0.169,0.075c-0.672,0.196-1.327,0.368-1.97,0.515
			c-0.668,0.147-1.319,0.268-1.948,0.368v3.242l2.845-0.886l-0.83-1.767l0.83-0.589c0.317,0.592,0.616,1.205,0.9,1.841
			c0.271,0.592,0.565,1.207,0.881,1.844L140.174,17.488z"/>
		<path fill="#2C4197" d="M165.159,15.571h-8.557v2.797h8.557V15.571z M165.159,12.036h-8.557v2.797h8.557V12.036z M165.396,29.12
			l-0.705,0.148l-2.141-0.148l-0.237-1.03c0.271,0.05,0.565,0.099,0.881,0.147c0.328,0.049,0.664,0.1,1.022,0.145
			c0.273-0.045,0.55-0.147,0.835-0.292c0.271-0.197,0.51-0.444,0.707-0.738c0.157-0.934,0.296-1.891,0.408-2.871
			c0.159-0.984,0.297-1.941,0.428-2.871h-2.141c-0.798,1.866-1.733,3.414-2.801,4.64c-1.111,1.227-2.477,2.183-4.092,2.87
			l-0.359-0.738c1.338-0.688,2.488-1.596,3.445-2.723c0.911-1.177,1.701-2.528,2.372-4.048h-2.012
			c-0.998,1.914-2.052,3.335-3.16,4.269c-1.105,0.933-2.512,1.72-4.221,2.358l-0.347-1.032c1.346-0.443,2.512-1.129,3.493-2.063
			c0.998-0.931,1.853-2.109,2.568-3.532h-2.377c-0.484,0.441-0.994,0.859-1.544,1.251c-0.522,0.442-1.079,0.857-1.666,1.253
			l-0.359-0.887c0.597-0.49,1.23-1.103,1.902-1.837c0.673-0.789,1.183-1.547,1.543-2.285h-1.543v-7.806h11.06v7.806h-7.851
			c-0.161,0.293-0.315,0.587-0.476,0.884c-0.154,0.292-0.314,0.59-0.47,0.886h9.631c0.154,0,0.313,0.071,0.472,0.22
			c0.115,0.194,0.192,0.415,0.234,0.662c-0.042,0.343-0.085,0.662-0.126,0.957c-0.032,0.343-0.068,0.662-0.108,0.957
			c-0.158,1.13-0.378,2.138-0.663,3.019C166.728,27.576,166.193,28.382,165.396,29.12z"/>
		<path fill="#2C4197" d="M180.969,20.281c0.116,0.787,0.338,1.523,0.665,2.209c0.273,0.689,0.608,1.327,1.006,1.915
			c0.396-0.636,0.735-1.301,1.008-1.989c0.282-0.684,0.539-1.398,0.77-2.135H180.969z M185.141,17.926h-1.556
			c-0.232-0.149-0.39-0.344-0.474-0.59c-0.117-0.198-0.151-0.441-0.111-0.736v-4.418h-1.901c0.031,1.619-0.091,2.897-0.362,3.827
			c-0.313,0.937-1.029,1.865-2.14,2.8l-0.475-0.736c0.316-0.343,0.653-0.811,1.013-1.398c0.396-0.59,0.613-1.104,0.66-1.547v-3.683
			h4.388v5.3c0.082,0.056,0.182,0.127,0.298,0.225c0.082,0.099,0.185,0.169,0.3,0.221c0.242-0.098,0.456-0.419,0.646-0.957
			c0.196-0.588,0.336-1.007,0.42-1.25l1.307,0.734c-0.239,0.54-0.496,1.03-0.768,1.473
			C186.103,17.631,185.687,17.874,185.141,17.926z M186.446,29.118c-0.715-0.395-1.408-0.809-2.093-1.252
			c-0.628-0.49-1.242-1.006-1.84-1.545c-0.674,0.587-1.342,1.103-2.013,1.545c-0.716,0.444-1.47,0.811-2.267,1.105l-0.346-1.03
			c0.669-0.344,1.322-0.71,1.952-1.107c0.635-0.391,1.25-0.805,1.841-1.25c-0.549-0.883-0.96-1.741-1.243-2.578
			c-0.315-0.835-0.574-1.743-0.773-2.725h-1.305v-0.735h7.486c0.045,0.146,0.102,0.295,0.173,0.44
			c0.086,0.149,0.15,0.295,0.191,0.441c-0.441,0.936-0.918,1.818-1.431,2.654c-0.516,0.833-1.029,1.668-1.541,2.502
			c0.557,0.492,1.146,0.957,1.775,1.399c0.597,0.44,1.23,0.861,1.903,1.251L186.446,29.118z M176.221,17.041h-2.03v4.123h2.03
			V17.041z M176.221,12.182h-2.03v4.123h2.03V12.182z M176.331,28.971h-1.887l-0.254-1.178c0.197,0.051,0.419,0.098,0.66,0.147
			c0.198,0.048,0.42,0.098,0.662,0.147c0.158-0.05,0.313-0.122,0.475-0.222c0.111-0.146,0.189-0.318,0.233-0.515V21.9h-1.905
			c-0.081,0.98-0.303,2.208-0.659,3.684c-0.316,1.422-0.766,2.504-1.351,3.237c-0.044-0.098-0.088-0.24-0.131-0.439
			c-0.038-0.242-0.061-0.394-0.061-0.441c0.199-0.836,0.399-1.67,0.596-2.505c0.159-0.882,0.259-1.718,0.299-2.503V11.444h4.515
			v16.202c-0.039,0.295-0.175,0.589-0.407,0.884C176.831,28.774,176.573,28.922,176.331,28.971z"/>
		<path fill="#2C4197" d="M205.212,18.96c-0.841-0.981-1.551-1.987-2.14-3.018c-0.558-1.03-1.035-2.185-1.431-3.461h-0.838v-0.738
			h2.269c0.115,1.225,0.428,2.381,0.941,3.464c0.516,1.03,1.108,2.034,1.778,3.017L205.212,18.96z M200.206,12.922
			c-0.425,1.081-0.922,2.133-1.477,3.167c-0.559,1.028-1.132,2.036-1.731,3.017l-0.6-0.59c0.644-1.127,1.16-2.231,1.558-3.309
			c0.389-1.131,0.704-2.334,0.945-3.613c0.284,0.052,0.563,0.124,0.837,0.225c0.27,0.046,0.507,0.268,0.705,0.662L200.206,12.922z
			 M203.308,29.123h-2.374l-0.365-1.031l1.901,0.148c0.277-0.295,0.456-0.64,0.538-1.031c0.116-0.346,0.253-0.74,0.408-1.178v-5.744
			h-2.735c0,2.207-0.314,3.951-0.942,5.227c-0.6,1.328-1.629,2.628-3.086,3.903l-0.489-0.881c0.756-0.591,1.371-1.279,1.841-2.067
			c0.483-0.783,0.904-1.663,1.26-2.648l0.237-3.534h-1.903V19.55h7.125v6.919c-0.035,0.444-0.207,0.935-0.533,1.476
			C203.918,28.434,203.621,28.828,203.308,29.123z M195.094,15.723v13.841h-1.303V17.932c-0.273,0.489-0.57,0.931-0.883,1.324
			c-0.327,0.444-0.626,0.884-0.897,1.327l-0.598-0.59c0.517-1.03,1.026-2.086,1.54-3.166c0.515-1.082,0.992-2.186,1.434-3.315
			c0.044-0.293,0.141-0.76,0.301-1.4c0.112-0.636,0.252-0.98,0.406-1.03c0.16,0,0.438,0.099,0.838,0.292
			c0.395,0.15,0.636,0.322,0.721,0.519c-0.283,0.638-0.541,1.277-0.789,1.912C195.592,14.397,195.336,15.035,195.094,15.723z"/>
		<path fill="#2C4197" d="M221.367,21.758h-5.586v2.506h5.586V21.758z M221.367,18.372h-5.586v2.503h5.586V18.372z M216.978,15.13
			c-0.156,0.343-0.319,0.736-0.486,1.178c-0.191,0.393-0.35,0.837-0.474,1.328h6.652v10.012c-0.028,0.494-0.165,0.91-0.406,1.255
			c-0.282,0.292-0.616,0.465-1.007,0.515h-2.031h-0.345l-0.253-1.03c0.285,0.047,0.581,0.098,0.896,0.149
			c0.314,0.046,0.653,0.095,1.007,0.143h0.49c0.074-0.143,0.13-0.269,0.175-0.366c0.039-0.146,0.097-0.271,0.171-0.371v-2.943
			h-5.586v4.566h-1.307v-9.13c-0.556,0.587-1.131,1.149-1.728,1.692c-0.549,0.588-1.118,1.153-1.716,1.693l-0.601-0.884
			c0.642-0.637,1.273-1.301,1.903-1.987c0.629-0.736,1.226-1.498,1.779-2.284c0.284-0.54,0.525-1.13,0.725-1.766
			c0.201-0.591,0.396-1.179,0.581-1.769h-4.859v-0.884h5.222c0.041-0.392,0.119-0.834,0.236-1.325
			c0.124-0.539,0.205-0.98,0.236-1.327c-0.031-0.146-0.031-0.27,0-0.367c0.043-0.049,0.121-0.074,0.237-0.074
			c0.167,0,0.428,0.051,0.784,0.149c0.359,0.097,0.571,0.243,0.645,0.441c-0.399,1.474-0.632,2.307-0.705,2.502h7.596v0.884H216.978
			z"/>
		<path fill="#2C4197" d="M241.472,16.157h-4.389v2.798h4.389V16.157z M241.472,12.326h-4.389v3.096h4.389V12.326z M243.502,28.821
			c-0.439-0.243-0.816-0.515-1.132-0.808c-0.357-0.295-0.69-0.617-1.005-0.957c-1.071-1.133-1.807-2.209-2.203-3.242
			c-0.444-1.081-0.776-2.455-1.009-4.124h-1.07v6.48l2.14-0.736v0.736l-3.207,1.473c-0.327,0.095-0.606,0.221-0.836,0.37
			c-0.283,0.096-0.524,0.271-0.722,0.516c-0.074,0.049-0.154,0.071-0.235,0.071c-0.074,0.05-0.152,0.074-0.237,0.074
			c-0.076-0.047-0.191-0.271-0.347-0.661c-0.197-0.346-0.32-0.566-0.362-0.665l2.612-0.884V11.591h6.89v8.1h-3.322
			c0.043,0.638,0.122,1.252,0.24,1.84c0.158,0.639,0.356,1.254,0.598,1.841c0.387-0.392,0.745-0.858,1.071-1.401
			c0.314-0.537,0.629-1.052,0.943-1.544c0.081,0,0.159,0,0.234,0c0.085,0,0.264,0.122,0.535,0.368
			c0.315,0.196,0.492,0.369,0.536,0.516c-0.119,0.295-0.552,0.813-1.306,1.548c-0.788,0.784-1.344,1.3-1.671,1.544
			c0.442,0.736,0.942,1.401,1.496,1.989c0.557,0.638,1.168,1.155,1.842,1.547L243.502,28.821z M232.318,18.217
			c0.598,0.738,1.112,1.572,1.556,2.504c0.43,0.984,0.665,1.966,0.708,2.946c-0.043,0.493-0.14,0.934-0.3,1.326
			c-0.155,0.393-0.373,0.738-0.644,1.033h-2.504l-0.122-1.033l1.666,0.295c0.24-0.246,0.419-0.516,0.534-0.811
			c0.115-0.294,0.172-0.613,0.172-0.956c-0.072-0.835-0.345-1.768-0.815-2.801c-0.483-1.03-0.925-1.864-1.324-2.504
			c0.399-0.932,0.776-1.865,1.134-2.795c0.358-0.936,0.692-1.866,1.006-2.801l-0.345-0.295h-2.374v16.792h-1.311V11.591h5.103
			l0.594,0.884c-0.427,0.931-0.886,1.888-1.367,2.872C233.256,16.281,232.798,17.237,232.318,18.217z"/>
		<path fill="#2C4197" d="M262.523,21.169c-1.47-1.327-2.525-2.629-3.163-3.905c-0.627-1.276-1.121-2.969-1.478-5.083h-2.502v-0.736
			h3.932c0.116,1.964,0.509,3.635,1.18,5.011c0.673,1.372,1.589,2.747,2.738,4.123L262.523,21.169z M261.219,29.269l-1.195-2.947
			c-1.514,0.344-2.996,0.684-4.452,1.03c-1.512,0.293-3.002,0.638-4.472,1.03c-0.316,0.052-0.591,0.099-0.832,0.151
			c-0.276,0.048-0.507,0.146-0.712,0.291c-0.11,0-0.214,0.051-0.293,0.15c-0.117,0.048-0.218,0.096-0.301,0.146h-0.111
			c-0.198-0.245-0.319-0.49-0.362-0.738c-0.042-0.294-0.042-0.538,0-0.736l0.125-0.293l1.907-0.294
			c0.628-1.524,1.259-3.067,1.888-4.64c0.593-1.569,1.115-3.166,1.555-4.786c0.034-0.246,0.07-0.49,0.111-0.735
			c0.043-0.248,0.164-0.441,0.362-0.59c0.197,0,0.498,0.071,0.896,0.221c0.358,0.148,0.573,0.369,0.647,0.664
			c0,0.046,0,0.096,0,0.144c0,0.05,0,0.098,0,0.149c-0.316,0.492-0.675,1.228-1.073,2.208c-0.396,0.935-0.709,1.672-0.943,2.212
			c-0.32,0.836-0.664,1.67-1.021,2.502c-0.39,0.835-0.723,1.67-1.009,2.504c1.229-0.245,2.499-0.492,3.807-0.736
			c1.271-0.248,2.576-0.492,3.921-0.736c-0.388-0.738-0.785-1.448-1.183-2.135c-0.397-0.689-0.794-1.351-1.194-1.989l0.836-0.736
			c0.753,1.177,1.507,2.382,2.264,3.606c0.745,1.276,1.458,2.577,2.14,3.904c-0.202,0.196-0.42,0.391-0.658,0.589
			C261.66,28.875,261.449,29.07,261.219,29.269z M248.727,21.169l-0.474-0.736c0.8-1.133,1.49-2.457,2.076-3.977
			c0.6-1.474,0.975-2.999,1.137-4.566c0.039-0.198,0.081-0.345,0.124-0.444c0.031-0.096,0.147-0.146,0.344-0.146
			c0.242,0.1,0.497,0.224,0.771,0.366c0.283,0.1,0.505,0.272,0.665,0.516c-0.642,1.72-1.316,3.291-2.034,4.716
			C250.621,18.271,249.751,19.692,248.727,21.169z"/>
		<path fill="#2C4197" d="M275.808,19.986h-4.514v5.449h4.514V19.986z M271.294,26.171v0.885h-1.312v-7.806h7.131v6.92H271.294z
			 M268.555,16.453V15.57h9.861v0.883H268.555z M280.321,29.118h-0.472h-1.902h-0.474l-0.238-1.03
			c0.277,0.099,0.591,0.171,0.945,0.222c0.313,0.048,0.638,0.072,0.962,0.072c0.156,0,0.35-0.049,0.579-0.147
			c0.203-0.048,0.321-0.246,0.364-0.589V12.182H268.08v-0.738h13.2v15.467c0,0.44-0.083,0.857-0.248,1.251
			C280.875,28.555,280.634,28.875,280.321,29.118z"/>
		<path fill="#D70B24" d="M97.635,44.967h1.306c0.117,0.728,0.508,1.091,1.176,1.091c0.665,0,1.129-0.155,1.403-0.468
			c0.269-0.313,0.406-1.192,0.406-2.632v-7.571h1.49v7.512c0,1.634-0.242,2.817-0.723,3.543c-0.482,0.727-1.337,1.092-2.568,1.092
			c-0.707,0-1.29-0.231-1.743-0.7C97.928,46.371,97.677,45.747,97.635,44.967"/>
		<path fill="#D70B24" d="M106.978,35.313c0.245,0,0.449,0.093,0.619,0.282c0.17,0.188,0.255,0.413,0.255,0.672
			c0,0.276-0.084,0.504-0.255,0.69c-0.17,0.19-0.374,0.283-0.619,0.283c-0.235,0-0.438-0.093-0.609-0.283
			c-0.171-0.187-0.255-0.414-0.255-0.69c0-0.265,0.083-0.489,0.251-0.674C106.53,35.405,106.739,35.313,106.978,35.313
			 M106.205,47.369v-7.438h-1.088v-1.309h2.503v8.746H106.205z"/>
		<path fill="#D70B24" d="M119.074,47.369v-5.536c0-1.376-0.539-2.064-1.619-2.064c-0.341,0-0.659,0.115-0.956,0.348
			c-0.301,0.229-0.5,0.496-0.609,0.788v6.465h-1.414v-6.214c0-0.428-0.148-0.765-0.439-1.015c-0.297-0.248-0.685-0.372-1.171-0.372
			c-0.277,0-0.576,0.12-0.896,0.363c-0.317,0.241-0.548,0.508-0.68,0.801v6.437h-1.414v-8.746h0.919l0.469,1.018
			c0.543-0.788,1.227-1.181,2.043-1.181c1.138,0,1.936,0.389,2.389,1.164c0.159-0.333,0.451-0.608,0.883-0.83
			c0.43-0.221,0.872-0.334,1.328-0.334c0.823,0,1.456,0.267,1.906,0.801c0.45,0.539,0.678,1.291,0.678,2.267v5.842H119.074z"/>
		<path fill="#D70B24" d="M130.77,46.814l0.543-1.501c0.276,0.224,0.622,0.41,1.036,0.558c0.411,0.15,0.784,0.223,1.112,0.223
			c0.579,0,1.045-0.174,1.399-0.523c0.348-0.351,0.522-0.793,0.522-1.33c0-0.404-0.094-0.779-0.291-1.123
			c-0.197-0.345-0.688-0.72-1.476-1.132l-0.877-0.449c-0.743-0.381-1.261-0.828-1.558-1.352c-0.293-0.524-0.443-1.156-0.443-1.889
			c0-0.899,0.287-1.643,0.866-2.226c0.578-0.591,1.313-0.885,2.216-0.885c1.202,0,2.043,0.218,2.514,0.653l-0.435,1.42
			c-0.2-0.159-0.502-0.315-0.911-0.466c-0.403-0.15-0.782-0.225-1.13-0.225c-0.505,0-0.901,0.155-1.193,0.473
			c-0.288,0.318-0.436,0.725-0.436,1.222c0,0.311,0.054,0.587,0.159,0.837c0.102,0.248,0.25,0.459,0.432,0.632
			c0.187,0.171,0.567,0.408,1.139,0.709l0.893,0.47c0.743,0.386,1.263,0.848,1.562,1.382c0.299,0.538,0.446,1.22,0.446,2.045
			c0,0.904-0.327,1.671-0.984,2.293c-0.655,0.627-1.533,0.939-2.634,0.939C132.278,47.569,131.453,47.317,130.77,46.814"/>
		<path fill="#D70B24" d="M143.372,47.369v-5.493c0-0.653-0.146-1.168-0.436-1.545c-0.294-0.374-0.704-0.563-1.231-0.563
			c-0.339,0-0.679,0.109-1.025,0.333c-0.342,0.223-0.606,0.479-0.79,0.77v6.498h-1.413V35.024h1.413v4.565
			c0.191-0.326,0.493-0.595,0.91-0.809c0.419-0.217,0.852-0.321,1.292-0.321c0.844,0,1.501,0.304,1.979,0.915
			c0.477,0.611,0.713,1.442,0.713,2.497v5.497H143.372z"/>
		<path fill="#D70B24" d="M148.229,35.313c0.247,0,0.453,0.093,0.622,0.282c0.168,0.188,0.255,0.413,0.255,0.672
			c0,0.276-0.087,0.504-0.255,0.69c-0.169,0.19-0.375,0.283-0.622,0.283c-0.235,0-0.437-0.093-0.608-0.283
			c-0.171-0.187-0.255-0.414-0.255-0.69c0-0.265,0.084-0.489,0.251-0.674C147.783,35.405,147.99,35.313,148.229,35.313
			 M147.457,47.369v-7.438h-1.088v-1.309h2.504v8.746H147.457z"/>
		<path fill="#D70B24" d="M156.024,47.369v-5.087c0-0.929-0.13-1.58-0.382-1.956c-0.256-0.373-0.686-0.558-1.282-0.558
			c-0.322,0-0.657,0.106-1.01,0.321c-0.351,0.215-0.619,0.474-0.808,0.781v6.498h-1.414v-8.746h0.969l0.445,1.121
			c0.467-0.856,1.223-1.284,2.282-1.284c1.743,0,2.611,1.165,2.611,3.5v5.409H156.024z"/>
		<polygon fill="#D70B24" points="167.824,36.858 167.824,47.369 166.334,47.369 166.334,36.858 162.868,36.858 162.868,35.387 
			171.446,35.387 171.446,36.858 		"/>
		<path fill="#D70B24" d="M175.235,40.124c-0.306-0.237-0.617-0.355-0.93-0.355c-0.499,0-0.935,0.255-1.306,0.762
			c-0.378,0.506-0.564,1.12-0.564,1.84v4.999h-1.413v-8.746h1.413v1.4c0.517-1.042,1.281-1.563,2.296-1.563
			c0.253,0,0.616,0.047,1.089,0.146L175.235,40.124z"/>
		<path fill="#D70B24" d="M181.179,43.059c-0.445-0.095-0.755-0.146-0.935-0.146c-0.714,0-1.296,0.204-1.744,0.605
			c-0.45,0.401-0.677,0.879-0.677,1.432c0,0.909,0.486,1.362,1.46,1.362c0.716,0,1.345-0.372,1.896-1.128V43.059z M181.313,46.368
			c-0.565,0.777-1.431,1.165-2.595,1.165c-0.62,0-1.165-0.248-1.621-0.751c-0.459-0.495-0.689-1.116-0.689-1.857
			c0-0.888,0.351-1.642,1.06-2.254c0.708-0.615,1.608-0.92,2.701-0.92c0.297,0,0.636,0.063,1.011,0.201
			c0-1.409-0.574-2.109-1.725-2.109c-0.881,0-1.558,0.265-2.035,0.797l-0.591-1.309c0.266-0.237,0.639-0.441,1.107-0.615
			c0.475-0.17,0.93-0.256,1.361-0.256c1.151,0,1.989,0.288,2.512,0.862c0.521,0.575,0.785,1.495,0.785,2.759v3.133
			c0,0.771,0.206,1.281,0.622,1.536v0.783c-0.576,0-1.005-0.092-1.291-0.271C181.642,47.081,181.438,46.781,181.313,46.368z"/>
		<path fill="#D70B24" d="M189.854,40.653c-0.353-0.59-0.838-0.885-1.456-0.885c-0.755,0-1.368,0.309-1.831,0.934
			c-0.471,0.622-0.704,1.413-0.704,2.376c0,2.106,0.869,3.163,2.609,3.163c0.222,0,0.489-0.078,0.801-0.233
			c0.31-0.156,0.504-0.321,0.581-0.497V40.653z M189.854,47.369v-0.652c-0.488,0.543-1.199,0.816-2.136,0.816
			c-0.994,0-1.803-0.394-2.421-1.179c-0.616-0.785-0.928-1.83-0.928-3.142c0-1.31,0.358-2.429,1.071-3.358
			c0.712-0.93,1.558-1.395,2.545-1.395c0.82,0,1.446,0.211,1.868,0.634v-4.069h1.416v12.345H189.854z"/>
		<path fill="#D70B24" d="M194.741,35.313c0.241,0,0.447,0.093,0.616,0.282c0.174,0.188,0.257,0.413,0.257,0.672
			c0,0.276-0.083,0.504-0.257,0.69c-0.169,0.19-0.375,0.283-0.616,0.283c-0.239,0-0.443-0.093-0.614-0.283
			c-0.171-0.187-0.253-0.414-0.253-0.69c0-0.265,0.082-0.489,0.249-0.674C194.294,35.405,194.496,35.313,194.741,35.313
			 M193.968,47.369v-7.438h-1.088v-1.309h2.502v8.746H193.968z"/>
		<path fill="#D70B24" d="M202.529,47.369v-5.087c0-0.929-0.122-1.58-0.381-1.956c-0.256-0.373-0.679-0.558-1.279-0.558
			c-0.319,0-0.658,0.106-1.009,0.321c-0.354,0.215-0.621,0.474-0.812,0.781v6.498h-1.412v-8.746h0.966l0.446,1.121
			c0.468-0.856,1.228-1.284,2.281-1.284c1.744,0,2.613,1.165,2.613,3.5v5.409H202.529z"/>
		<path fill="#D70B24" d="M208.641,39.714c-0.49,0-0.891,0.188-1.199,0.566c-0.313,0.377-0.465,0.84-0.465,1.387
			c0,0.605,0.147,1.109,0.447,1.506c0.299,0.396,0.706,0.596,1.217,0.596c0.502,0,0.893-0.193,1.176-0.58
			c0.282-0.385,0.423-0.891,0.423-1.521c0-0.547-0.155-1.01-0.456-1.387C209.477,39.902,209.1,39.714,208.641,39.714 M205.658,49.76
			l0.76-1.246c0.822,0.606,1.578,0.908,2.273,0.908c0.638,0,1.138-0.121,1.507-0.362c0.369-0.245,0.556-0.542,0.556-0.9
			c0-0.707-0.465-1.064-1.396-1.064c-0.163,0-0.45,0.045-0.866,0.138c-0.412,0.091-0.738,0.137-0.971,0.137
			c-1.132,0-1.693-0.471-1.693-1.414c0-0.291,0.133-0.557,0.396-0.788c0.265-0.238,0.593-0.409,0.981-0.513
			c-1.112-0.575-1.674-1.576-1.674-2.998c0-0.91,0.29-1.674,0.867-2.284c0.582-0.608,1.298-0.912,2.148-0.912
			c0.785,0,1.395,0.174,1.838,0.527l0.702-0.929l0.925,0.955l-0.854,0.704c0.36,0.514,0.544,1.185,0.544,2.019
			c0,0.885-0.253,1.623-0.748,2.223c-0.503,0.598-1.16,0.942-1.972,1.028l-1.164,0.13c-0.138,0.017-0.324,0.073-0.555,0.175
			c-0.232,0.099-0.346,0.232-0.346,0.399c0,0.222,0.24,0.334,0.724,0.334c0.211,0,0.545-0.045,0.992-0.129
			c0.451-0.084,0.783-0.128,1.003-0.128c0.78,0,1.391,0.206,1.83,0.619c0.435,0.413,0.655,0.981,0.655,1.712
			c0,0.805-0.331,1.458-0.982,1.958c-0.656,0.495-1.483,0.748-2.486,0.748c-0.517,0-1.058-0.103-1.622-0.307
			C206.457,50.296,206.002,50.05,205.658,49.76z"/>
		<path fill="#D70B24" d="M225.229,35.841l-0.502,1.391c-0.475-0.381-1.223-0.572-2.25-0.572c-0.956,0-1.724,0.451-2.303,1.354
			c-0.58,0.901-0.864,2.068-0.864,3.496c0,1.362,0.292,2.467,0.89,3.314c0.593,0.849,1.357,1.271,2.298,1.271
			c1.021,0,1.81-0.396,2.362-1.195l0.82,1.252c-0.869,0.944-1.978,1.419-3.333,1.419c-1.429,0-2.551-0.566-3.365-1.696
			c-0.82-1.127-1.226-2.612-1.226-4.46c0-1.783,0.433-3.266,1.308-4.452c0.87-1.182,2-1.775,3.383-1.775
			C223.63,35.186,224.556,35.403,225.229,35.841"/>
		<path fill="#D70B24" d="M228.236,42.973c0,2.193,0.705,3.287,2.114,3.287c0.662,0,1.177-0.294,1.552-0.88
			c0.372-0.59,0.559-1.388,0.559-2.407c0-2.161-0.704-3.241-2.11-3.241c-0.639,0-1.156,0.287-1.54,0.862
			C228.43,41.169,228.236,41.962,228.236,42.973 M226.743,42.973c0-1.348,0.334-2.437,0.995-3.268
			c0.663-0.83,1.533-1.245,2.612-1.245c1.143,0,2.028,0.396,2.657,1.19c0.631,0.797,0.945,1.905,0.945,3.322
			c0,1.416-0.324,2.526-0.968,3.338c-0.646,0.814-1.522,1.223-2.635,1.223c-1.135,0-2.02-0.411-2.651-1.234
			C227.062,45.479,226.743,44.368,226.743,42.973z"/>
		<path fill="#D70B24" d="M236.277,45.438c-0.22,0.24-0.329,0.528-0.329,0.863c0,0.341,0.109,0.634,0.329,0.869
			c0.216,0.241,0.477,0.363,0.783,0.363c0.31,0,0.566-0.122,0.786-0.363c0.217-0.235,0.322-0.528,0.322-0.869
			c0-0.335-0.105-0.623-0.322-0.863c-0.22-0.24-0.477-0.359-0.786-0.359C236.754,45.078,236.493,45.197,236.277,45.438"/>
		<path fill="#D70B24" d="M241.667,50.353l-0.38-0.593c0.861-0.767,1.291-1.423,1.291-1.968c0-0.237-0.073-0.475-0.222-0.711
			c-0.433-0.228-0.65-0.549-0.65-0.967c0-0.289,0.104-0.528,0.307-0.719c0.202-0.188,0.46-0.279,0.766-0.279
			c0.276,0,0.52,0.129,0.735,0.389c0.218,0.262,0.322,0.568,0.322,0.914c0,0.731-0.136,1.387-0.412,1.964
			C243.146,48.965,242.561,49.62,241.667,50.353"/>
		<polygon fill="#D70B24" points="246.722,47.369 246.722,35.387 248.215,35.387 248.215,45.896 253.124,45.896 253.124,47.369 		
			"/>
		<path fill="#D70B24" d="M254.814,44.812c0,0.784,0.216,1.431,0.652,1.95c0.436,0.514,0.966,0.771,1.596,0.771
			c0.7,0,1.344-0.081,1.929-0.246l-0.206-1.374c-0.391,0.209-0.764,0.309-1.13,0.309c-0.498,0-0.863-0.155-1.089-0.468
			c-0.226-0.313-0.34-0.836-0.34-1.572v-4.339h2.193v-1.22h-2.193v-2.438l-1.412,0.599v1.839h-0.919v1.22h0.919V44.812z"/>
		<path fill="#D70B24" d="M265.386,40.653c-0.36-0.59-0.846-0.885-1.464-0.885c-0.755,0-1.365,0.309-1.834,0.934
			c-0.465,0.622-0.697,1.413-0.697,2.376c0,2.106,0.871,3.163,2.607,3.163c0.219,0,0.49-0.078,0.801-0.233
			c0.31-0.156,0.507-0.321,0.587-0.497V40.653z M265.386,47.369v-0.652c-0.492,0.543-1.207,0.816-2.137,0.816
			c-0.995,0-1.807-0.394-2.421-1.179c-0.622-0.785-0.929-1.83-0.929-3.142c0-1.31,0.355-2.429,1.067-3.358
			c0.709-0.93,1.561-1.395,2.545-1.395c0.825,0,1.444,0.211,1.874,0.634v-4.069h1.413v12.345H265.386z"/>
		<path fill="#D70B24" d="M270.45,45.078c0.305,0,0.567,0.119,0.782,0.359c0.219,0.24,0.327,0.528,0.327,0.863
			c0,0.341-0.108,0.634-0.327,0.869c-0.215,0.241-0.478,0.363-0.782,0.363c-0.307,0-0.565-0.122-0.783-0.363
			c-0.221-0.235-0.329-0.528-0.329-0.869c0-0.335,0.108-0.623,0.329-0.863C269.885,45.197,270.144,45.078,270.45,45.078"/>
		<path fill="#2C4197" d="M109.059,16.604h-4.409v2.21h4.409V16.604z M109.059,13.66h-4.409v2.209h4.409V13.66z M107.989,27.945
			l-0.363-1.032c0.158,0,0.337,0.024,0.535,0.075c0.2,0,0.416,0.024,0.646,0.074c0.165-0.05,0.29-0.171,0.359-0.369
			c0.088-0.248,0.131-0.468,0.131-0.662v-4.417H107.5v7.657h-1.306v-7.657h-1.78v6.332h-1.196v-5.3
			c-0.429,0.441-0.722,0.93-0.877,1.471c-0.202,0.539-0.38,1.081-0.535,1.621l-0.839-0.295c0.075-0.54,0.152-1.056,0.239-1.546
			c0.072-0.54,0.149-1.056,0.237-1.546c-0.042-0.198-0.024-0.344,0.061-0.444c0.073-0.099,0.212-0.146,0.409-0.146
			c0.203,0,0.421,0.048,0.661,0.146c0.203,0.1,0.416,0.196,0.645,0.293v-1.323h2.976V19.7h-2.847v-6.777h2.373
			c0.086-0.295,0.164-0.589,0.239-0.882c0.042-0.295,0.118-0.589,0.235-0.887l0.471-0.07c0.169-0.053,0.37-0.027,0.597,0.07
			c0.205,0.101,0.325,0.298,0.364,0.591c-0.198,0.148-0.338,0.318-0.425,0.516c-0.117,0.195-0.209,0.416-0.282,0.662h3.445V19.7
			H107.5v1.176h3.099v4.712c-0.042,1.081-0.298,1.743-0.774,1.99C109.313,27.774,108.701,27.897,107.989,27.945z M98.107,26.326
			c-0.074-0.198-0.168-0.564-0.283-1.107c-0.083-0.488-0.185-0.86-0.299-1.104l-0.488-1.917l0.6-0.44
			c0.239,0.64,0.517,1.252,0.83,1.842c0.283,0.637,0.565,1.252,0.836,1.84c-0.243,0.148-0.461,0.295-0.66,0.439
			C98.454,26.031,98.273,26.176,98.107,26.326z M102.64,15.723c-0.442-0.346-0.839-0.736-1.196-1.184
			c-0.36-0.441-0.673-0.879-0.947-1.322l-2.139,3.386h3.794v0.884h-1.306v2.504h1.793v0.736h-1.793v6.186l2.026-0.587l-0.124,0.736
			c-0.596,0.196-1.527,0.635-2.783,1.325c-1.313,0.688-2.127,1.078-2.44,1.177c-0.198-0.048-0.363-0.193-0.488-0.44
			c-0.115-0.245-0.195-0.443-0.236-0.588c0.041-0.149,0.105-0.274,0.188-0.37c0.033-0.098,0.091-0.172,0.173-0.221
			c0.402-0.048,0.797-0.124,1.196-0.221c0.389-0.098,0.781-0.22,1.182-0.369v-6.627h-2.615v-0.736h2.615v-2.504H97.87v-0.295
			l-0.707,0.739l-0.599-0.59c0.672-0.884,1.27-1.841,1.794-2.874c0.512-1.028,0.988-2.135,1.418-3.315h1.43
			c0.199,0.739,0.458,1.426,0.773,2.064c0.316,0.687,0.691,1.326,1.131,1.915L102.64,15.723z"/>
		<path fill="#2C4197" d="M129.622,29.564c-0.794-0.786-1.506-1.619-2.135-2.505c-0.672-0.932-1.272-1.914-1.795-2.944
			c-0.43,1.081-1.02,2.06-1.779,2.944c-0.752,0.935-1.547,1.769-2.374,2.505l-0.596-0.884c0.512-0.394,1.022-0.81,1.54-1.254
			c0.482-0.489,0.882-1.052,1.197-1.691c0.198-0.49,0.473-1.202,0.83-2.133c0.359-0.983,0.557-1.646,0.599-1.988v-5.303h-0.486
			c-0.314,0.638-0.607,1.277-0.881,1.914c-0.285,0.638-0.581,1.276-0.897,1.916l-0.599-0.443c0.513-1.422,0.972-2.846,1.367-4.272
			c0.402-1.422,0.7-2.871,0.897-4.343l1.666,0.513l-1.302,3.978h4.28c0.117,0,0.23,0.049,0.346,0.151
			c0.123,0.146,0.206,0.341,0.235,0.587c-0.074,0.341-0.351,1.007-0.834,1.988c-0.513,0.931-0.906,1.642-1.181,2.136
			c-0.113-0.049-0.258-0.124-0.423-0.222c-0.118-0.098-0.252-0.173-0.407-0.221c0.114-0.346,0.333-0.909,0.659-1.693
			c0.315-0.835,0.494-1.4,0.536-1.695c0-0.049-0.023-0.097-0.067-0.146c0-0.1-0.02-0.147-0.062-0.147h-1.667v1.914
			c-0.042,2.358,0.214,4.295,0.77,5.819c0.555,1.521,1.525,3.067,2.915,4.638L129.622,29.564z M120.703,17.781v11.783h-1.305V17.781
			h-1.666v1.474c0,1.916-0.179,3.658-0.536,5.229c-0.357,1.52-0.929,3.116-1.718,4.786l-0.361-0.734
			c0.203-0.688,0.435-1.623,0.711-2.801c0.279-1.128,0.442-2.062,0.486-2.798V12.186c0.228,0.048,0.465,0.075,0.708,0.075
			c0.238,0.046,0.477,0.07,0.709,0.07c0.637-0.048,1.294-0.193,1.965-0.438c0.673-0.246,1.326-0.441,1.965-0.589l0.82,1.473
			c-0.789,0.192-1.581,0.344-2.377,0.441c-0.826,0.097-1.621,0.146-2.373,0.146v3.682h4.875v0.736H120.703z"/>
		<path fill="#2C4197" d="M145.176,17.781l-0.483-0.882l1.429,0.146c0.241-0.05,0.478-0.196,0.712-0.441
			c0.196-0.293,0.316-0.587,0.359-0.881l0.126-3.096h-1.666c-0.314,1.178-0.773,2.186-1.37,3.019
			c-0.628,0.838-1.401,1.449-2.313,1.842l-0.363-0.589c0.754-0.49,1.333-1.081,1.732-1.769c0.386-0.736,0.725-1.568,1.006-2.503
			h-2.264v-0.734h6.542c0,0.834-0.063,1.912-0.188,3.237c-0.114,1.328-0.528,2.161-1.242,2.505c-0.313,0.049-0.65,0.073-1.007,0.073
			C145.872,17.759,145.536,17.781,145.176,17.781 M145.29,23.821h-7.49v1.768h7.49V23.821z M145.29,21.317h-7.49v1.769h7.49V21.317z
			 M145.29,18.812h-7.49v1.771h7.49V18.812z M148.024,29.713c-0.828-0.296-1.637-0.638-2.436-1.032
			c-0.788-0.44-1.557-0.932-2.317-1.472c0.12-0.149,0.234-0.295,0.348-0.441c0.128-0.149,0.248-0.298,0.367-0.444h-4.521
			c0.046,0.198,0.144,0.346,0.301,0.444c0.117,0.146,0.214,0.292,0.3,0.441l-0.125,0.295c-0.789,0.441-1.58,0.833-2.378,1.177
			c-0.785,0.395-1.577,0.736-2.374,1.032l-0.597-1.032c0.668-0.344,1.348-0.712,2.028-1.102c0.671-0.397,1.345-0.811,2.015-1.255
			h-2.141v-8.247h10.099v8.247h-1.901c0.554,0.492,1.152,0.934,1.792,1.327c0.63,0.343,1.341,0.637,2.139,0.886L148.024,29.713z
			 M140.174,17.488l-0.47-1.177l-3.806,1.621c-0.119,0-0.234,0.071-0.346,0.218c-0.13,0.149-0.25,0.271-0.363,0.367
			c-0.201-0.193-0.379-0.414-0.536-0.66c-0.116-0.248-0.174-0.467-0.174-0.664c0.117-0.147,0.254-0.244,0.413-0.293
			c0.112-0.097,0.255-0.195,0.422-0.295v-4.273l0.108-0.145l0.13-0.146l0.83,0.146c0.671-0.049,1.364-0.246,2.078-0.592
			c0.715-0.34,1.207-0.513,1.48-0.513c0.125,0,0.3,0.099,0.532,0.292c0.241,0.15,0.385,0.322,0.427,0.519
			c-0.042,0.098-0.105,0.17-0.191,0.219c-0.071,0.053-0.129,0.075-0.169,0.075c-0.672,0.196-1.327,0.368-1.97,0.515
			c-0.668,0.147-1.319,0.268-1.948,0.368v3.242l2.845-0.886l-0.83-1.767l0.83-0.589c0.317,0.592,0.616,1.205,0.9,1.841
			c0.271,0.592,0.565,1.207,0.881,1.844L140.174,17.488z"/>
		<path fill="#2C4197" d="M165.159,15.571h-8.557v2.797h8.557V15.571z M165.159,12.036h-8.557v2.797h8.557V12.036z M165.396,29.12
			l-0.705,0.148l-2.141-0.148l-0.237-1.03c0.271,0.05,0.565,0.099,0.881,0.147c0.328,0.049,0.664,0.1,1.022,0.145
			c0.273-0.045,0.55-0.147,0.835-0.292c0.271-0.197,0.51-0.444,0.707-0.738c0.157-0.934,0.296-1.891,0.408-2.871
			c0.159-0.984,0.297-1.941,0.428-2.871h-2.141c-0.798,1.866-1.733,3.414-2.801,4.64c-1.111,1.227-2.477,2.183-4.092,2.87
			l-0.359-0.738c1.338-0.688,2.488-1.596,3.445-2.723c0.911-1.177,1.701-2.528,2.372-4.048h-2.012
			c-0.998,1.914-2.052,3.335-3.16,4.269c-1.105,0.933-2.512,1.72-4.221,2.358l-0.347-1.032c1.346-0.443,2.512-1.129,3.493-2.063
			c0.998-0.931,1.853-2.109,2.568-3.532h-2.377c-0.484,0.441-0.994,0.859-1.544,1.251c-0.522,0.442-1.079,0.857-1.666,1.253
			l-0.359-0.887c0.597-0.49,1.23-1.103,1.902-1.837c0.673-0.789,1.183-1.547,1.543-2.285h-1.543v-7.806h11.06v7.806h-7.851
			c-0.161,0.293-0.315,0.587-0.476,0.884c-0.154,0.292-0.314,0.59-0.47,0.886h9.631c0.154,0,0.313,0.071,0.472,0.22
			c0.115,0.194,0.192,0.415,0.234,0.662c-0.042,0.343-0.085,0.662-0.126,0.957c-0.032,0.343-0.068,0.662-0.108,0.957
			c-0.158,1.13-0.378,2.138-0.663,3.019C166.728,27.576,166.193,28.382,165.396,29.12z"/>
		<path fill="#2C4197" d="M180.969,20.281c0.116,0.787,0.338,1.523,0.665,2.209c0.273,0.689,0.608,1.327,1.006,1.915
			c0.396-0.636,0.735-1.301,1.008-1.989c0.282-0.684,0.539-1.398,0.77-2.135H180.969z M185.141,17.926h-1.556
			c-0.232-0.149-0.39-0.344-0.474-0.59c-0.117-0.198-0.151-0.441-0.111-0.736v-4.418h-1.901c0.031,1.619-0.091,2.897-0.362,3.827
			c-0.313,0.937-1.029,1.865-2.14,2.8l-0.475-0.736c0.316-0.343,0.653-0.811,1.013-1.398c0.396-0.59,0.613-1.104,0.66-1.547v-3.683
			h4.388v5.3c0.082,0.056,0.182,0.127,0.298,0.225c0.082,0.099,0.185,0.169,0.3,0.221c0.242-0.098,0.456-0.419,0.646-0.957
			c0.196-0.588,0.336-1.007,0.42-1.25l1.307,0.734c-0.239,0.54-0.496,1.03-0.768,1.473
			C186.103,17.631,185.687,17.874,185.141,17.926z M186.446,29.118c-0.715-0.395-1.408-0.809-2.093-1.252
			c-0.628-0.49-1.242-1.006-1.84-1.545c-0.674,0.587-1.342,1.103-2.013,1.545c-0.716,0.444-1.47,0.811-2.267,1.105l-0.346-1.03
			c0.669-0.344,1.322-0.71,1.952-1.107c0.635-0.391,1.25-0.805,1.841-1.25c-0.549-0.883-0.96-1.741-1.243-2.578
			c-0.315-0.835-0.574-1.743-0.773-2.725h-1.305v-0.735h7.486c0.045,0.146,0.102,0.295,0.173,0.44
			c0.086,0.149,0.15,0.295,0.191,0.441c-0.441,0.936-0.918,1.818-1.431,2.654c-0.516,0.833-1.029,1.668-1.541,2.502
			c0.557,0.492,1.146,0.957,1.775,1.399c0.597,0.44,1.23,0.861,1.903,1.251L186.446,29.118z M176.221,17.041h-2.03v4.123h2.03
			V17.041z M176.221,12.182h-2.03v4.123h2.03V12.182z M176.331,28.971h-1.887l-0.254-1.178c0.197,0.051,0.419,0.098,0.66,0.147
			c0.198,0.048,0.42,0.098,0.662,0.147c0.158-0.05,0.313-0.122,0.475-0.222c0.111-0.146,0.189-0.318,0.233-0.515V21.9h-1.905
			c-0.081,0.98-0.303,2.208-0.659,3.684c-0.316,1.422-0.766,2.504-1.351,3.237c-0.044-0.098-0.088-0.24-0.131-0.439
			c-0.038-0.242-0.061-0.394-0.061-0.441c0.199-0.836,0.399-1.67,0.596-2.505c0.159-0.882,0.259-1.718,0.299-2.503V11.444h4.515
			v16.202c-0.039,0.295-0.175,0.589-0.407,0.884C176.831,28.774,176.573,28.922,176.331,28.971z"/>
		<path fill="#2C4197" d="M205.212,18.96c-0.841-0.981-1.551-1.987-2.14-3.018c-0.558-1.03-1.035-2.185-1.431-3.461h-0.838v-0.738
			h2.269c0.115,1.225,0.428,2.381,0.941,3.464c0.516,1.03,1.108,2.034,1.778,3.017L205.212,18.96z M200.206,12.922
			c-0.425,1.081-0.922,2.133-1.477,3.167c-0.559,1.028-1.132,2.036-1.731,3.017l-0.6-0.59c0.644-1.127,1.16-2.231,1.558-3.309
			c0.389-1.131,0.704-2.334,0.945-3.613c0.284,0.052,0.563,0.124,0.837,0.225c0.27,0.046,0.507,0.268,0.705,0.662L200.206,12.922z
			 M203.308,29.123h-2.374l-0.365-1.031l1.901,0.148c0.277-0.295,0.456-0.64,0.538-1.031c0.116-0.346,0.253-0.74,0.408-1.178v-5.744
			h-2.735c0,2.207-0.314,3.951-0.942,5.227c-0.6,1.328-1.629,2.628-3.086,3.903l-0.489-0.881c0.756-0.591,1.371-1.279,1.841-2.067
			c0.483-0.783,0.904-1.663,1.26-2.648l0.237-3.534h-1.903V19.55h7.125v6.919c-0.035,0.444-0.207,0.935-0.533,1.476
			C203.918,28.434,203.621,28.828,203.308,29.123z M195.094,15.723v13.841h-1.303V17.932c-0.273,0.489-0.57,0.931-0.883,1.324
			c-0.327,0.444-0.626,0.884-0.897,1.327l-0.598-0.59c0.517-1.03,1.026-2.086,1.54-3.166c0.515-1.082,0.992-2.186,1.434-3.315
			c0.044-0.293,0.141-0.76,0.301-1.4c0.112-0.636,0.252-0.98,0.406-1.03c0.16,0,0.438,0.099,0.838,0.292
			c0.395,0.15,0.636,0.322,0.721,0.519c-0.283,0.638-0.541,1.277-0.789,1.912C195.592,14.397,195.336,15.035,195.094,15.723z"/>
		<path fill="#2C4197" d="M221.367,21.758h-5.586v2.506h5.586V21.758z M221.367,18.372h-5.586v2.503h5.586V18.372z M216.978,15.13
			c-0.156,0.343-0.319,0.736-0.486,1.178c-0.191,0.393-0.35,0.837-0.474,1.328h6.652v10.012c-0.028,0.494-0.165,0.91-0.406,1.255
			c-0.282,0.292-0.616,0.465-1.007,0.515h-2.031h-0.345l-0.253-1.03c0.285,0.047,0.581,0.098,0.896,0.149
			c0.314,0.046,0.653,0.095,1.007,0.143h0.49c0.074-0.143,0.13-0.269,0.175-0.366c0.039-0.146,0.097-0.271,0.171-0.371v-2.943
			h-5.586v4.566h-1.307v-9.13c-0.556,0.587-1.131,1.149-1.728,1.692c-0.549,0.588-1.118,1.153-1.716,1.693l-0.601-0.884
			c0.642-0.637,1.273-1.301,1.903-1.987c0.629-0.736,1.226-1.498,1.779-2.284c0.284-0.54,0.525-1.13,0.725-1.766
			c0.201-0.591,0.396-1.179,0.581-1.769h-4.859v-0.884h5.222c0.041-0.392,0.119-0.834,0.236-1.325
			c0.124-0.539,0.205-0.98,0.236-1.327c-0.031-0.146-0.031-0.27,0-0.367c0.043-0.049,0.121-0.074,0.237-0.074
			c0.167,0,0.428,0.051,0.784,0.149c0.359,0.097,0.571,0.243,0.645,0.441c-0.399,1.474-0.632,2.307-0.705,2.502h7.596v0.884H216.978
			z"/>
		<path fill="#2C4197" d="M241.472,16.157h-4.389v2.798h4.389V16.157z M241.472,12.326h-4.389v3.096h4.389V12.326z M243.502,28.821
			c-0.439-0.243-0.816-0.515-1.132-0.808c-0.357-0.295-0.69-0.617-1.005-0.957c-1.071-1.133-1.807-2.209-2.203-3.242
			c-0.444-1.081-0.776-2.455-1.009-4.124h-1.07v6.48l2.14-0.736v0.736l-3.207,1.473c-0.327,0.095-0.606,0.221-0.836,0.37
			c-0.283,0.096-0.524,0.271-0.722,0.516c-0.074,0.049-0.154,0.071-0.235,0.071c-0.074,0.05-0.152,0.074-0.237,0.074
			c-0.076-0.047-0.191-0.271-0.347-0.661c-0.197-0.346-0.32-0.566-0.362-0.665l2.612-0.884V11.591h6.89v8.1h-3.322
			c0.043,0.638,0.122,1.252,0.24,1.84c0.158,0.639,0.356,1.254,0.598,1.841c0.387-0.392,0.745-0.858,1.071-1.401
			c0.314-0.537,0.629-1.052,0.943-1.544c0.081,0,0.159,0,0.234,0c0.085,0,0.264,0.122,0.535,0.368
			c0.315,0.196,0.492,0.369,0.536,0.516c-0.119,0.295-0.552,0.813-1.306,1.548c-0.788,0.784-1.344,1.3-1.671,1.544
			c0.442,0.736,0.942,1.401,1.496,1.989c0.557,0.638,1.168,1.155,1.842,1.547L243.502,28.821z M232.318,18.217
			c0.598,0.738,1.112,1.572,1.556,2.504c0.43,0.984,0.665,1.966,0.708,2.946c-0.043,0.493-0.14,0.934-0.3,1.326
			c-0.155,0.393-0.373,0.738-0.644,1.033h-2.504l-0.122-1.033l1.666,0.295c0.24-0.246,0.419-0.516,0.534-0.811
			c0.115-0.294,0.172-0.613,0.172-0.956c-0.072-0.835-0.345-1.768-0.815-2.801c-0.483-1.03-0.925-1.864-1.324-2.504
			c0.399-0.932,0.776-1.865,1.134-2.795c0.358-0.936,0.692-1.866,1.006-2.801l-0.345-0.295h-2.374v16.792h-1.311V11.591h5.103
			l0.594,0.884c-0.427,0.931-0.886,1.888-1.367,2.872C233.256,16.281,232.798,17.237,232.318,18.217z"/>
		<path fill="#2C4197" d="M262.523,21.169c-1.47-1.327-2.525-2.629-3.163-3.905c-0.627-1.276-1.121-2.969-1.478-5.083h-2.502v-0.736
			h3.932c0.116,1.964,0.509,3.635,1.18,5.011c0.673,1.372,1.589,2.747,2.738,4.123L262.523,21.169z M261.219,29.269l-1.195-2.947
			c-1.514,0.344-2.996,0.684-4.452,1.03c-1.512,0.293-3.002,0.638-4.472,1.03c-0.316,0.052-0.591,0.099-0.832,0.151
			c-0.276,0.048-0.507,0.146-0.712,0.291c-0.11,0-0.214,0.051-0.293,0.15c-0.117,0.048-0.218,0.096-0.301,0.146h-0.111
			c-0.198-0.245-0.319-0.49-0.362-0.738c-0.042-0.294-0.042-0.538,0-0.736l0.125-0.293l1.907-0.294
			c0.628-1.524,1.259-3.067,1.888-4.64c0.593-1.569,1.115-3.166,1.555-4.786c0.034-0.246,0.07-0.49,0.111-0.735
			c0.043-0.248,0.164-0.441,0.362-0.59c0.197,0,0.498,0.071,0.896,0.221c0.358,0.148,0.573,0.369,0.647,0.664
			c0,0.046,0,0.096,0,0.144c0,0.05,0,0.098,0,0.149c-0.316,0.492-0.675,1.228-1.073,2.208c-0.396,0.935-0.709,1.672-0.943,2.212
			c-0.32,0.836-0.664,1.67-1.021,2.502c-0.39,0.835-0.723,1.67-1.009,2.504c1.229-0.245,2.499-0.492,3.807-0.736
			c1.271-0.248,2.576-0.492,3.921-0.736c-0.388-0.738-0.785-1.448-1.183-2.135c-0.397-0.689-0.794-1.351-1.194-1.989l0.836-0.736
			c0.753,1.177,1.507,2.382,2.264,3.606c0.745,1.276,1.458,2.577,2.14,3.904c-0.202,0.196-0.42,0.391-0.658,0.589
			C261.66,28.875,261.449,29.07,261.219,29.269z M248.727,21.169l-0.474-0.736c0.8-1.133,1.49-2.457,2.076-3.977
			c0.6-1.474,0.975-2.999,1.137-4.566c0.039-0.198,0.081-0.345,0.124-0.444c0.031-0.096,0.147-0.146,0.344-0.146
			c0.242,0.1,0.497,0.224,0.771,0.366c0.283,0.1,0.505,0.272,0.665,0.516c-0.642,1.72-1.316,3.291-2.034,4.716
			C250.621,18.271,249.751,19.692,248.727,21.169z"/>
		<path fill="#2C4197" d="M275.808,19.986h-4.514v5.449h4.514V19.986z M271.294,26.171v0.885h-1.312v-7.806h7.131v6.92H271.294z
			 M268.555,16.453V15.57h9.861v0.883H268.555z M280.321,29.118h-0.472h-1.902h-0.474l-0.238-1.03
			c0.277,0.099,0.591,0.171,0.945,0.222c0.313,0.048,0.638,0.072,0.962,0.072c0.156,0,0.35-0.049,0.579-0.147
			c0.203-0.048,0.321-0.246,0.364-0.589V12.182H268.08v-0.738h13.2v15.467c0,0.44-0.083,0.857-0.248,1.251
			C280.875,28.555,280.634,28.875,280.321,29.118z"/>
	</g>
	<g>
		<defs>
			<path id="SVGID_1_" d="M75.082,30.953c-1.844-0.538-3.784,0.518-4.325,2.366c-0.542,1.844,0.517,3.781,2.365,4.322
				c1.844,0.542,3.78-0.516,4.321-2.362C77.988,33.434,76.93,31.499,75.082,30.953 M76.289,21.958
				c-2.179-0.641-4.463,0.607-5.1,2.782c-0.641,2.177,0.605,4.464,2.783,5.102c2.176,0.641,4.461-0.607,5.101-2.785
				C79.709,24.882,78.465,22.597,76.289,21.958z M70.121,17.814c-1.716-0.502-3.511,0.479-4.014,2.193
				c-0.504,1.712,0.476,3.508,2.189,4.013c1.717,0.5,3.51-0.48,4.016-2.192C72.813,20.116,71.831,18.319,70.121,17.814z
				 M76.855,13.508c-1.951-0.574-3.991,0.543-4.567,2.492c-0.571,1.949,0.546,3.994,2.495,4.565
				c1.949,0.571,3.993-0.545,4.565-2.492C79.92,16.123,78.804,14.08,76.855,13.508z M81.844,6.516
				c-2.049-0.603-4.197,0.571-4.798,2.62c-0.601,2.045,0.571,4.195,2.622,4.797c2.044,0.6,4.193-0.574,4.796-2.62
				C85.066,9.267,83.891,7.116,81.844,6.516z M83.78,19.872c-1.934-0.565-3.943,0.486-4.491,2.352
				c-0.546,1.865,0.576,3.836,2.504,4.405c1.931,0.565,3.94-0.489,4.49-2.354C86.827,22.413,85.708,20.439,83.78,19.872z
				 M85.463,13.546c-1.59-0.465-3.253,0.442-3.719,2.031c-0.466,1.586,0.443,3.25,2.029,3.719c1.587,0.465,3.252-0.445,3.719-2.031
				C87.956,15.678,87.047,14.016,85.463,13.546z M79.539,5.825c-0.194,0.651-0.875,1.023-1.526,0.833
				c-0.649-0.192-1.022-0.872-0.833-1.523c0.193-0.651,0.874-1.023,1.527-0.833C79.356,4.491,79.727,5.173,79.539,5.825z
				 M43.494,22.403c-0.67-0.197-1.373,0.188-1.57,0.857c-0.196,0.671,0.188,1.375,0.856,1.574c0.672,0.196,1.375-0.187,1.573-0.861
				C44.55,23.305,44.169,22.601,43.494,22.403z M25.442,8.405c-0.783-0.23-1.603,0.219-1.833,1.001c-0.228,0.784,0.22,1.604,1,1.835
				c0.785,0.229,1.604-0.22,1.835-1.004C26.674,9.457,26.229,8.636,25.442,8.405z M80.487,33.2
				c-0.198,0.672-0.904,1.055-1.575,0.859c-0.668-0.197-1.051-0.901-0.854-1.573c0.195-0.671,0.897-1.055,1.57-0.856
				C80.299,31.826,80.681,32.531,80.487,33.2z M69.341,24.82c-0.67-0.197-1.374,0.188-1.569,0.857
				c-0.197,0.671,0.188,1.375,0.854,1.575c0.67,0.195,1.377-0.191,1.574-0.862C70.396,25.722,70.014,25.018,69.341,24.82z
				 M5.238,26.463c-0.134,0.457-0.612,0.72-1.069,0.585c-0.457-0.135-0.719-0.613-0.585-1.07c0.134-0.458,0.613-0.718,1.072-0.585
				C5.112,25.529,5.373,26.007,5.238,26.463z M16.245,15.163c-0.131,0.459-0.612,0.72-1.069,0.587
				c-0.454-0.135-0.715-0.615-0.582-1.072s0.613-0.718,1.067-0.583C16.12,14.228,16.38,14.707,16.245,15.163z M14.503,49.878
				c-0.454-0.135-0.933,0.129-1.066,0.583c-0.134,0.458,0.126,0.937,0.581,1.072c0.457,0.132,0.937-0.129,1.07-0.586
				C15.223,50.492,14.962,50.011,14.503,49.878z M43.263,51.02c-0.458-0.134-0.936,0.128-1.071,0.583
				c-0.134,0.459,0.129,0.936,0.585,1.071c0.457,0.135,0.935-0.126,1.069-0.585C43.98,51.632,43.72,51.153,43.263,51.02z
				 M52.847,0.035c-0.452-0.133-0.927,0.125-1.058,0.578c-0.132,0.454,0.126,0.926,0.576,1.061c0.456,0.133,0.927-0.126,1.062-0.58
				C53.558,0.642,53.303,0.167,52.847,0.035z M68.698,41.263c-0.456-0.135-0.934,0.128-1.068,0.584
				c-0.134,0.457,0.126,0.936,0.582,1.07c0.457,0.134,0.937-0.129,1.071-0.584C69.416,41.876,69.155,41.396,68.698,41.263z
				 M71.25,38.062c-0.85-0.25-1.739,0.237-1.99,1.085c-0.252,0.852,0.238,1.742,1.084,1.992c0.854,0.249,1.743-0.236,1.994-1.088
				C72.585,39.203,72.1,38.311,71.25,38.062z M81.714,27.356c-1.075-0.315-2.204,0.301-2.521,1.376
				c-0.317,1.078,0.303,2.205,1.378,2.524c1.075,0.314,2.206-0.304,2.522-1.379C83.409,28.804,82.791,27.673,81.714,27.356z
				 M5.954,44.15c-0.537-0.157-1.098,0.149-1.256,0.687c-0.157,0.536,0.149,1.1,0.687,1.258c0.536,0.155,1.097-0.15,1.255-0.687
				C6.798,44.872,6.492,44.311,5.954,44.15z M19.011,28.391c-1.167-0.344-2.386,0.324-2.729,1.486
				c-0.339,1.168,0.328,2.385,1.49,2.728c1.165,0.34,2.383-0.326,2.726-1.489C20.838,29.952,20.173,28.735,19.011,28.391z
				 M10.338,36.93c-0.797-0.237-1.636,0.222-1.87,1.021c-0.233,0.801,0.224,1.637,1.022,1.873c0.797,0.234,1.634-0.224,1.87-1.023
				C11.594,38.002,11.139,37.165,10.338,36.93z M2.237,35.688c-0.629-0.187-1.286,0.175-1.471,0.801
				c-0.183,0.628,0.177,1.285,0.804,1.469c0.627,0.185,1.284-0.172,1.47-0.802C3.221,36.529,2.863,35.872,2.237,35.688z
				 M40.558,52.415c-0.186,0.629-0.843,0.986-1.467,0.802c-0.628-0.183-0.989-0.84-0.804-1.469c0.183-0.625,0.842-0.986,1.47-0.801
				C40.382,51.133,40.742,51.789,40.558,52.415z M35.701,51.053c-0.742-0.218-1.524,0.206-1.74,0.949
				c-0.22,0.744,0.206,1.523,0.952,1.743c0.742,0.218,1.521-0.208,1.739-0.952C36.87,52.05,36.444,51.271,35.701,51.053z
				 M13.686,27.076c-1.165-0.343-2.386,0.327-2.728,1.49c-0.345,1.167,0.328,2.389,1.49,2.733c1.165,0.34,2.388-0.329,2.729-1.491
				C15.521,28.642,14.853,27.418,13.686,27.076z M18.876,49.071c-0.96-0.283-1.967,0.267-2.25,1.227
				c-0.286,0.963,0.269,1.97,1.229,2.252c0.96,0.284,1.967-0.269,2.25-1.229C20.387,50.36,19.836,49.352,18.876,49.071z
				 M31.15,50.604c-0.919-0.271-1.882,0.254-2.151,1.171c-0.27,0.922,0.259,1.884,1.175,2.153c0.918,0.271,1.88-0.254,2.152-1.175
				C32.595,51.836,32.068,50.873,31.15,50.604z M13.771,16.163c-1.161-0.341-2.376,0.322-2.718,1.485
				c-0.341,1.161,0.328,2.377,1.485,2.718c1.161,0.341,2.377-0.323,2.718-1.486C15.597,17.721,14.934,16.505,13.771,16.163z
				 M51.785,29.978c-1.1-0.321-2.25,0.306-2.571,1.403c-0.321,1.097,0.307,2.246,1.405,2.57c1.094,0.321,2.246-0.309,2.567-1.405
				C53.506,31.452,52.878,30.3,51.785,29.978z M48.849,0.486c-0.949-0.278-1.94,0.265-2.22,1.213
				c-0.28,0.948,0.267,1.941,1.214,2.223c0.947,0.278,1.941-0.266,2.221-1.214C50.341,1.76,49.798,0.766,48.849,0.486z
				 M74.728,9.716c-0.885-0.259-1.813,0.246-2.073,1.132c-0.261,0.883,0.247,1.81,1.13,2.071c0.888,0.26,1.813-0.246,2.076-1.129
				C76.12,10.903,75.61,9.976,74.728,9.716z M63.979,17.778c-1.067-0.313-2.187,0.298-2.503,1.368
				c-0.311,1.065,0.299,2.186,1.367,2.5c1.068,0.314,2.188-0.299,2.501-1.367C65.658,19.21,65.045,18.091,63.979,17.778z
				 M69.347,9.335c-2.244-0.658-4.572,0.541-5.2,2.673c-0.625,2.135,0.686,4.399,2.93,5.059c2.239,0.658,4.568-0.539,5.194-2.673
				C72.899,12.262,71.588,9.996,69.347,9.335z M60.766,10.088c-2.188-0.642-4.482,0.612-5.125,2.8
				c-0.642,2.185,0.611,4.481,2.799,5.124c2.185,0.64,4.479-0.612,5.121-2.798C64.203,13.027,62.952,10.731,60.766,10.088z
				 M55.278,33.827c-1.696-0.499-3.472,0.471-3.966,2.162c-0.496,1.689,0.473,3.466,2.163,3.961c1.691,0.497,3.466-0.47,3.961-2.162
				C57.934,36.097,56.966,34.322,55.278,33.827z M48.021,34.445c-1.865-0.552-3.823,0.518-4.368,2.386
				c-0.548,1.862,0.52,3.818,2.383,4.364c1.864,0.548,3.821-0.52,4.368-2.384C50.952,36.947,49.885,34.989,48.021,34.445z
				 M30.605,41.765c-1.779-0.518-3.642,0.498-4.165,2.279c-0.521,1.776,0.498,3.64,2.273,4.164c1.778,0.519,3.642-0.499,4.164-2.274
				C33.399,44.152,32.384,42.288,30.605,41.765z M40.299,35.579c-1.509-0.441-3.089,0.421-3.533,1.929
				c-0.439,1.506,0.421,3.088,1.931,3.53c1.505,0.44,3.085-0.42,3.531-1.927C42.666,37.603,41.806,36.022,40.299,35.579z
				 M33.194,36.216c-1.343-0.392-2.754,0.378-3.15,1.722c-0.394,1.345,0.377,2.755,1.722,3.15c1.343,0.393,2.753-0.376,3.149-1.72
				C35.309,38.022,34.54,36.613,33.194,36.216z M36.714,28.879c-1.926-0.563-3.946,0.538-4.51,2.466
				c-0.565,1.925,0.538,3.941,2.461,4.506c1.926,0.568,3.945-0.535,4.512-2.46C39.742,31.463,38.639,29.445,36.714,28.879z
				 M38.976,21.152c-1.921-0.563-3.934,0.536-4.498,2.457s0.534,3.934,2.457,4.497c1.919,0.567,3.934-0.534,4.495-2.455
				C41.996,23.73,40.895,21.717,38.976,21.152z M45.776,25.666c-2.243-0.657-4.59,0.624-5.25,2.864
				c-0.655,2.238,0.628,4.588,2.867,5.247c2.239,0.657,4.586-0.628,5.246-2.864C49.294,28.673,48.013,26.322,45.776,25.666z
				 M39.891,15.194c-1.498-0.441-3.076,0.421-3.516,1.92c-0.438,1.5,0.42,3.077,1.921,3.515c1.5,0.441,3.075-0.418,3.515-1.92
				C42.252,17.209,41.393,15.637,39.891,15.194z M41.238,8.912c-1.282-0.378-2.63,0.359-3.006,1.642
				c-0.375,1.283,0.359,2.629,1.644,3.005c1.28,0.377,2.627-0.356,3.007-1.641C43.258,10.636,42.523,9.288,41.238,8.912z
				 M44.083,2.075c-1.7-0.5-3.484,0.474-3.983,2.173c-0.499,1.699,0.478,3.482,2.177,3.983c1.697,0.498,3.481-0.474,3.979-2.173
				C46.754,4.356,45.782,2.576,44.083,2.075z M24.943,46.748c-1.844-0.544-3.781,0.512-4.324,2.359
				c-0.542,1.845,0.516,3.78,2.362,4.323c1.842,0.543,3.783-0.516,4.325-2.358C27.845,49.225,26.79,47.288,24.943,46.748z
				 M15.695,32.104c-1.824-0.535-3.736,0.51-4.271,2.33c-0.535,1.822,0.509,3.734,2.331,4.271c1.823,0.537,3.736-0.507,4.271-2.33
				C18.56,34.553,17.517,32.639,15.695,32.104z M19.542,18.924c-2.342-0.689-4.793,0.651-5.481,2.99
				c-0.686,2.339,0.652,4.791,2.992,5.48c2.341,0.687,4.792-0.654,5.479-2.99C23.217,22.063,21.88,19.611,19.542,18.924z
				 M22.121,10.888c-2.123-0.625-4.351,0.591-4.973,2.715c-0.626,2.122,0.591,4.35,2.719,4.975c2.118,0.623,4.347-0.593,4.972-2.715
				C25.46,13.739,24.244,11.511,22.121,10.888z M5.787,37.525c-1.622-0.471-3.318,0.454-3.796,2.077
				c-0.475,1.62,0.453,3.319,2.073,3.793c1.62,0.477,3.319-0.45,3.796-2.071C8.333,39.704,7.407,38.004,5.787,37.525z M6.98,27.834
				c-2.338-0.688-4.793,0.652-5.48,2.991c-0.686,2.337,0.652,4.793,2.991,5.48c2.339,0.688,4.794-0.654,5.48-2.993
				C10.66,30.976,9.319,28.52,6.98,27.834z M12.765,25.281c-0.567,1.934-2.596,3.042-4.531,2.474
				c-1.932-0.569-3.039-2.598-2.472-4.531c0.567-1.934,2.596-3.042,4.53-2.472C12.225,21.318,13.332,23.347,12.765,25.281z"/>
		</defs>
		<clipPath id="SVGID_2_">
			<use xlink:href="#SVGID_1_"  overflow="visible"/>
		</clipPath>
		
			<linearGradient id="SVGID_3_" gradientUnits="userSpaceOnUse" x1="-155.3208" y1="449.543" x2="-154.1865" y2="449.543" gradientTransform="matrix(77.044 0 0 47.7065 11967.125 -21419.125)">
			<stop  offset="0" style="stop-color:#00B6ED"/>
			<stop  offset="0.49" style="stop-color:#007FC4"/>
			<stop  offset="1" style="stop-color:#004899"/>
		</linearGradient>
		<rect x="0.584" y="-0.098" clip-path="url(#SVGID_2_)" fill="url(#SVGID_3_)" width="87.372" height="54.297"/>
	</g>
</g>
</svg>
