<svg id="圖層_1" data-name="圖層 1" xmlns="http://www.w3.org/2000/svg" viewBox="0 0 160.84 31"><defs><style>.cls-1{fill:#fca313;}.cls-2{fill:#fff;}</style></defs><title>readmore</title><rect class="cls-1" width="160.84" height="31" rx="15.5" ry="15.5"/><path class="cls-2" d="M41.59,21.16H39.54l-1.85-3.09a4.35,4.35,0,0,0-1-1.24,1.66,1.66,0,0,0-1-.33h-1v4.66H33V9.81h3.61a4.18,4.18,0,0,1,2.73.79,2.76,2.76,0,0,1,1,2.25,3,3,0,0,1-.67,2,3.5,3.5,0,0,1-1.86,1.14v0a4.06,4.06,0,0,1,1.71,1.79Zm-6.86-9.9V15H36.3a2.14,2.14,0,0,0,1.56-.56A1.91,1.91,0,0,0,38.44,13q0-1.78-2.11-1.78Z"/><path class="cls-2" d="M50,21.16H43.73V9.81h6v1.51H45.49v3.34h4v1.5h-4v3.49H50Z"/><path class="cls-2" d="M62.11,21.16H60.17l-1.06-3H54.57l-1,3H51.63L55.9,9.81h2Zm-3.49-4.41L57,12.27a4.88,4.88,0,0,1-.18-.86h-.05a4.3,4.3,0,0,1-.18.84l-1.57,4.49Z"/><path class="cls-2" d="M64.44,21.16V9.81h3.44q6,0,6,5.53a5.49,5.49,0,0,1-1.71,4.24,6.21,6.21,0,0,1-4.38,1.58Zm1.76-9.84v8.33h1.55a4.31,4.31,0,0,0,3.15-1.12A4.2,4.2,0,0,0,72,15.38a4,4,0,0,0-1.09-3,4.42,4.42,0,0,0-3.16-1Z"/><path class="cls-2" d="M91.55,21.16V13.83q0-1,.1-2.28h0a9.51,9.51,0,0,1-.34,1.24l-3.45,8.36H86.67l-3.46-8.3a9,9,0,0,1-.34-1.3h0q.07,1,.07,2.48v7.13H81.25V9.81h2.46l3.07,7.49a8.79,8.79,0,0,1,.48,1.46h.05c.09-.31.26-.8.51-1.48l3.12-7.47h2.36V21.16Z"/><path class="cls-2" d="M96.15,15.63a6.22,6.22,0,0,1,1.5-4.35,5.22,5.22,0,0,1,4.06-1.66,4.92,4.92,0,0,1,3.84,1.61A5.94,5.94,0,0,1,107,15.36a6.25,6.25,0,0,1-1.48,4.33,5.6,5.6,0,0,1-7.89.06A5.8,5.8,0,0,1,96.15,15.63ZM98,15.5a4.81,4.81,0,0,0,1,3.09,3.13,3.13,0,0,0,2.59,1.21,3.26,3.26,0,0,0,2.67-1.15,4.75,4.75,0,0,0,1-3.12,5,5,0,0,0-.92-3.18,3.13,3.13,0,0,0-2.62-1.17A3.23,3.23,0,0,0,99,12.4,4.76,4.76,0,0,0,98,15.5Z"/><path class="cls-2" d="M118.49,21.16h-2.06l-1.85-3.09a4.37,4.37,0,0,0-1-1.24,1.66,1.66,0,0,0-1-.33h-1v4.66h-1.76V9.81h3.61a4.18,4.18,0,0,1,2.73.79,2.76,2.76,0,0,1,1,2.25,3,3,0,0,1-.67,2,3.5,3.5,0,0,1-1.86,1.14v0a4.05,4.05,0,0,1,1.71,1.79Zm-6.86-9.9V15h1.56a2.14,2.14,0,0,0,1.56-.56,1.91,1.91,0,0,0,.58-1.44q0-1.78-2.11-1.78Z"/><path class="cls-2" d="M126.91,21.16h-6.28V9.81h6v1.51h-4.27v3.34h4v1.5h-4v3.49h4.53Z"/></svg>