<svg id="圖層_1" data-name="圖層 1" xmlns="http://www.w3.org/2000/svg" viewBox="0 0 444.06 35.8"><defs><style>.cls-1{fill:#fca313;stroke:#fca313;stroke-miterlimit:10;}.cls-2{fill:#020f3f;}</style></defs><title>section-2-title</title><path class="cls-1" d="M26.05,33.65a21.59,21.59,0,0,1-8.9,1.6C7.65,35.25.5,29.25.5,18.2.5,7.65,7.65.5,18.1.5a18.06,18.06,0,0,1,8,1.5l-1,3.55a15.84,15.84,0,0,0-6.8-1.4C10.35,4.15,5.1,9.2,5.1,18.05c0,8.25,4.75,13.55,13,13.55a17.41,17.41,0,0,0,7.1-1.4Z"/><path class="cls-1" d="M64.25,17.55c0,11.6-7,17.75-15.65,17.75-8.9,0-15.15-6.9-15.15-17.1C33.45,7.5,40.1.5,49.1.5,58.3.5,64.25,7.55,64.25,17.55ZM38.1,18.1c0,7.2,3.9,13.65,10.75,13.65s10.8-6.35,10.8-14c0-6.7-3.5-13.7-10.75-13.7S38.1,10.7,38.1,18.1Z"/><path class="cls-1" d="M74.9,34.75V1h4.75L90.45,18.1a95.34,95.34,0,0,1,6,11l.1-.05c-.4-4.5-.5-8.6-.5-13.85V1h4.1v33.7H95.8L85.1,17.65A106.92,106.92,0,0,1,78.8,6.4l-.15,0c.25,4.25.35,8.3.35,13.9v14.4Z"/><path class="cls-1" d="M119.2,4.75H108.95V1h25v3.7H123.6v30h-4.4Z"/><path class="cls-1" d="M144.35,24.15l-3.5,10.6h-4.5L147.8,1H153l11.5,33.7H159.9l-3.6-10.6Zm11-3.4-3.3-9.7c-.75-2.2-1.25-4.2-1.75-6.15h-.1c-.5,2-1.05,4.05-1.7,6.1l-3.3,9.75Z"/><path class="cls-1" d="M197.3,33.65a21.59,21.59,0,0,1-8.9,1.6c-9.5,0-16.65-6-16.65-17.05,0-10.55,7.15-17.7,17.6-17.7a18.06,18.06,0,0,1,8,1.5l-1,3.55a15.84,15.84,0,0,0-6.8-1.4c-7.9,0-13.15,5.05-13.15,13.9,0,8.25,4.75,13.55,13,13.55a17.41,17.41,0,0,0,7.1-1.4Z"/><path class="cls-1" d="M215.55,4.75H205.3V1h25v3.7h-10.3v30h-4.4Z"/><path class="cls-1" d="M238.1,29.45a15.42,15.42,0,0,0,7.8,2.2c4.45,0,7-2.35,7-5.75,0-3.15-1.8-5-6.35-6.7-5.5-2-8.9-4.8-8.9-9.55C237.7,4.4,242,.5,248.6.5A15.31,15.31,0,0,1,256,2.15l-1.2,3.55a13.42,13.42,0,0,0-6.4-1.6c-4.6,0-6.35,2.75-6.35,5.05,0,3.15,2.05,4.7,6.7,6.5,5.7,2.2,8.6,5,8.6,9.9,0,5.2-3.85,9.7-11.8,9.7A17.42,17.42,0,0,1,237,33.1Z"/><path class="cls-2" d="M299.94,31.85l-.67-4,1.52-.18V11.37h-1.23V7.92h12.54v3.46h-1.23V26.17l1.76-.32q-.23,2-.32,3.75l-1.44.25v5.32h-3.52V30.48Zm4.37-17.43h3v-3h-3Zm0,6.21h3v-3h-3Zm3,6.15v-3h-3v3.46Zm8.79-20.51A45.74,45.74,0,0,1,319,10.52l-2.74,1.38h3.91a62,62,0,0,0,2.93-5.8l3.78,1.64L324.3,11.9h3v3.46h-5.8q0,3,0,4.1h6.8v3.46h-6a13.15,13.15,0,0,0,6.27,8.26,35.25,35.25,0,0,0-2.31,4A18.47,18.47,0,0,1,320,25.26a16.45,16.45,0,0,1-6,10.08q-1.32-1.76-2.87-3.46a13.4,13.4,0,0,0,6.12-9H312V19.46h5.73q0-.75,0-4.1h-5.07V11.9h2.84a29.85,29.85,0,0,0-2.37-4.1Z"/><path class="cls-2" d="M342.66,15.53q1.23-.06,1.76-.06,1.14-2,2.34-4.54l3.46,1.58q-2.9,5-6.09,10.37,2.2-.29,4.57-.64-.21,2-.23,3.63-6,.79-8.35,1.35L339,23.94a26.37,26.37,0,0,0,3.52-5.07q-1.67.12-3.11.29l-1.11-3.31q2.08-2.52,5-9.58l3.63,1.41Q344.82,11.7,342.66,15.53Zm-3.69,18-.67-4.1Q342,29.1,349.39,28q-.18,2.46-.15,4Q342.71,32.91,339,33.58Zm10.58-19.25a40.58,40.58,0,0,0,5.63-8.06l4,.64q-.67,1.2-1.38,2.29h8.41v3.52a18.12,18.12,0,0,1-4.6,5.45,31.22,31.22,0,0,0,5.92,1.46,36,36,0,0,0-.88,3.81,34.23,34.23,0,0,1-8.64-3,45.75,45.75,0,0,1-8.55,3A29.88,29.88,0,0,0,347.93,20a43.2,43.2,0,0,0,6.65-1.9,17.51,17.51,0,0,1-1.9-2.05l-1.26,1.26A34.53,34.53,0,0,0,349.54,14.33Zm.85,20.95V23.44h15.12V35.28H361.7V33.93h-7.5v1.35Zm11.31-8.17h-7.5v3.16h7.5Zm-6.12-14.47-.59.76a13,13,0,0,0,3,3,11.05,11.05,0,0,0,3.63-3.75Z"/><path class="cls-2" d="M377.94,26.9l-.73-4.16q2.71-.23,5.36-.53V18.46h-5.33V14.71h5.33V11.83l-4.13.31q-.12-1.35-.53-3.75,6.56-.35,12.6-1.23l.91,3.66q-2.12.32-4.51.59v3.31h5.68l-.38-8.32h4.16q.09,4.26.28,8.32h9.62v3.75h-9.45a48.47,48.47,0,0,0,.63,5.67,32.46,32.46,0,0,0,4.63-5.35l3.13,2.55a43.49,43.49,0,0,1-6.58,6.77q1.17,2.8,2.64,2.8a1,1,0,0,0,.42-.1q.23-.1.61-1.6a35.54,35.54,0,0,0,.69-3.62,23.24,23.24,0,0,0,3.57,2,17.78,17.78,0,0,1-1.89,6,3.35,3.35,0,0,1-2.94,1.57q-4.22,0-6.45-4.48A55.54,55.54,0,0,1,390,33.84a22.12,22.12,0,0,0-2.4-3.43A34.16,34.16,0,0,0,394,26.93a49.88,49.88,0,0,1-1.17-8.47h-5.9V21.7q2.52-.32,5-.69-.09,1.29-.09,2.36,0,.85.06,1.57l-5,.62v5.83a3.75,3.75,0,0,1-.72,2.47,3.66,3.66,0,0,1-2.62,1q-1.9.14-4.45.14A19.21,19.21,0,0,0,378,31.12q1.42.12,2.9.12h.59a.94.94,0,0,0,.81-.37,2,2,0,0,0,.28-1.16V26.17ZM399.79,7.1q3.4,2.75,5.13,4.45-1.7,1.55-2.75,2.64a44.41,44.41,0,0,0-4.86-4.66Z"/><path class="cls-2" d="M421.59,6.39l3.93,1.11q-.85,2.81-1.85,5.38v22h-3.9v-14q-1.17,1.95-2.46,3.68-.38-2.58-1-5.42A42.17,42.17,0,0,0,421.59,6.39Zm4.8,7.44h3.9V34.9h-3.9Zm0-5.45,3.16-2q2.31,2.84,3.54,4.66l-3.34,2.26Q428.07,10.61,426.43,8.39Zm17.64,20.77a6.72,6.72,0,0,1-1,4.06,4,4,0,0,1-2.93,1.6q-1.88.19-6,.23-.41-2.05-1-4.13,1.7.1,3.21.1a10.29,10.29,0,0,0,2.36-.18,1.86,1.86,0,0,0,1.1-.86,3.32,3.32,0,0,0,.42-1.79V12.11h-5.92V8.18h9.81Z"/></svg>