<svg id="圖層_1" data-name="圖層 1" xmlns="http://www.w3.org/2000/svg" viewBox="0 0 403.41 78.81"><defs><style>.cls-1{fill:#fca313;}.cls-2{fill:#182d54;}.cls-3{fill:#081842;}</style></defs><title>section-2-logo</title><polygon class="cls-1" points="51.55 41.28 51.55 78.81 39.66 78.81 39.66 64.12 11.88 64.12 11.88 78.81 0 78.81 0 41.28 11.88 41.28 11.88 55.97 39.66 55.97 39.66 41.28 51.55 41.28"/><rect class="cls-1" x="58.65" y="41.28" width="51.56" height="8.15"/><rect class="cls-1" x="58.65" y="55.97" width="51.56" height="8.15"/><rect class="cls-1" x="58.65" y="70.66" width="51.56" height="8.15"/><rect class="cls-1" x="175.97" y="41.28" width="11.89" height="37.53"/><path class="cls-1" d="M168.87,41.28v27a10.23,10.23,0,0,1-.28,2.4,10.54,10.54,0,0,1-10.27,8.15,9.29,9.29,0,0,1-1.35-.09v.09H117.31V64.12H129.2v6.54h20.28A7.49,7.49,0,0,0,157,63.17V41.28Z"/><path class="cls-2" d="M246.1,49.43a10.55,10.55,0,0,0-10.28-8.15,10.74,10.74,0,0,0-1.34.08v-.08H195V78.81h39.53v-.08a10.74,10.74,0,0,0,1.34.08,10.55,10.55,0,0,0,10.28-8.15,10.23,10.23,0,0,0,.28-2.4V51.82A10.22,10.22,0,0,0,246.1,49.43ZM206.85,70.66V49.43H227a7.49,7.49,0,0,1,7.49,7.49v6.25A7.49,7.49,0,0,1,227,70.66Z"/><polygon class="cls-2" points="352.78 41.28 352.78 49.43 332.95 49.43 332.95 78.81 321.06 78.81 321.06 49.43 301.22 49.43 301.22 41.28 352.78 41.28"/><polygon class="cls-2" points="306.76 78.81 294.88 78.81 278.69 51.36 278.69 51.35 262.48 78.81 250.6 78.81 262.48 58.66 272.74 41.28 284.62 41.28 294.88 58.66 301.22 69.42 306.76 78.81"/><polygon class="cls-2" points="403.42 78.81 391.52 78.81 375.33 51.36 359.13 78.81 347.24 78.81 352.78 69.42 359.13 58.66 369.38 41.28 381.27 41.28 391.52 58.66 403.42 78.81"/><polygon class="cls-3" points="277.45 0.02 273.82 0.02 267.29 13.06 270.92 13.06 277.45 0.02"/><polygon class="cls-3" points="286.12 0.02 289.75 0.02 296.28 13.06 292.65 13.06 286.12 0.02"/><rect class="cls-3" x="271.08" y="7.64" width="21.42" height="2.45"/><rect class="cls-3" x="274.74" y="0.02" width="14.28" height="2.45"/><rect class="cls-3" x="310.61" y="0.02" width="16.16" height="2.45"/><rect class="cls-3" x="374.74" y="0.02" width="17.8" height="2.45"/><rect class="cls-3" x="374.74" y="6.35" width="17.8" height="2.45"/><rect class="cls-3" x="374.74" y="12.22" width="18.4" height="2.45"/><rect class="cls-3" x="380.01" y="18.09" width="12.53" height="2.45"/><rect class="cls-3" x="380.01" y="25.53" width="12.53" height="2.45"/><rect class="cls-3" x="319.94" y="9.14" width="7.36" height="2.45"/><rect class="cls-3" x="299.64" y="3.89" width="11.3" height="2.45"/><rect class="cls-3" x="332.12" y="5.12" width="15.22" height="2.45"/><rect class="cls-3" x="351.63" y="4.58" width="8.98" height="2.45"/><rect class="cls-3" x="364.27" y="4.58" width="9.59" height="2.45"/><polygon class="cls-3" points="373.86 14.28 364.27 19.32 364.27 16.56 373.86 11.53 373.86 14.28"/><rect class="cls-3" x="332.02" y="16.17" width="15.42" height="2.45"/><rect class="cls-3" x="364.25" y="25.49" width="6.64" height="2.45"/><rect class="cls-3" x="269.26" y="14.48" width="3.64" height="13.46"/><rect class="cls-3" x="290.68" y="14.48" width="3.64" height="13.46"/><rect class="cls-3" x="303.49" y="0.02" width="3.64" height="27.93"/><rect class="cls-3" x="337.9" y="0.02" width="3.64" height="13.93"/><rect class="cls-3" x="367.25" y="0.02" width="3.64" height="27.93"/><rect class="cls-3" x="388.9" y="0.02" width="3.64" height="8.78"/><rect class="cls-3" x="374.74" y="0.02" width="3.64" height="21.52"/><rect class="cls-3" x="384.43" y="7.8" width="3.64" height="11.86"/><rect class="cls-3" x="380.01" y="18.09" width="3.64" height="9.86"/><rect class="cls-3" x="388.9" y="18.09" width="3.64" height="9.86"/><polygon class="cls-3" points="378.37 21.54 374.74 21.54 372.47 27.95 376.11 27.95 378.37 21.54"/><polygon class="cls-3" points="354.86 0.02 351.22 0.02 346.86 10.99 350.5 10.99 354.86 0.02"/><polygon class="cls-3" points="359.46 6.11 355.83 6.11 346.8 27.95 350.87 27.95 359.46 6.11"/><polygon class="cls-3" points="348.18 12.22 351.82 12.22 360.61 27.95 356.54 27.95 348.18 12.22"/><rect class="cls-3" x="333.91" y="13.95" width="3.64" height="8.36"/><polygon class="cls-3" points="337.15 20.5 333.91 22.31 341.9 27.95 347.71 27.95 337.15 20.5"/><polygon class="cls-3" points="342.29 20.5 345.53 22.31 337.55 27.95 331.74 27.95 342.29 20.5"/><rect class="cls-3" x="341.9" y="13.95" width="3.64" height="8.36"/><polygon class="cls-3" points="335.42 0 331.78 0 333.15 4.29 336.79 4.29 335.42 0"/><polygon class="cls-3" points="344.02 0 347.65 0 346.28 4.29 342.65 4.29 344.02 0"/><polygon class="cls-3" points="335.42 13.95 331.78 13.95 333.15 8.59 336.79 8.59 335.42 13.95"/><polygon class="cls-3" points="344.02 13.95 347.65 13.95 346.28 8.59 342.65 8.59 344.02 13.95"/><rect class="cls-3" x="312.6" y="0.02" width="3.64" height="21.94"/><rect class="cls-3" x="323.66" y="9.14" width="3.64" height="6.58"/><polygon class="cls-3" points="326.77 2.47 323.14 2.47 319.94 9.14 323.58 9.14 326.77 2.47"/><polygon class="cls-3" points="327.3 15.71 323.66 15.71 315.77 27.95 319.41 27.95 327.3 15.71"/><polygon class="cls-3" points="316.13 13.4 319.76 13.4 329.13 27.95 325.49 27.95 316.13 13.4"/><polygon class="cls-3" points="316.24 21.95 312.6 21.95 309.24 27.91 312.87 27.91 316.24 21.95"/><polygon class="cls-3" points="302.46 8.1 300.24 8.1 299.52 23.33 301.74 23.33 302.46 8.1"/><polygon class="cls-3" points="308.12 8.1 310.33 8.1 311.05 23.33 308.83 23.33 308.12 8.1"/><rect class="cls-3" x="269.26" y="14.48" width="25.05" height="2.45"/><rect class="cls-3" x="269.26" y="25.53" width="25.05" height="2.45"/></svg>