<svg id="圖層_1" data-name="圖層 1" xmlns="http://www.w3.org/2000/svg" viewBox="0 0 15.59 15.58"><defs><style>.cls-1{fill:#f19d1f;}</style></defs><title>section-2-icon-1</title><path class="cls-1" d="M15.58,12.29a.75.75,0,0,1-.23.66l-2.19,2.18a1.24,1.24,0,0,1-.39.28,1.6,1.6,0,0,1-.47.15H12a7.3,7.3,0,0,1-2.73-.64,14.42,14.42,0,0,1-2.3-1.26,17.17,17.17,0,0,1-2.74-2.31A18.08,18.08,0,0,1,2.3,9.19,15.52,15.52,0,0,1,1.08,7.27a10.34,10.34,0,0,1-.69-1.6A8.49,8.49,0,0,1,.07,4.43,4.08,4.08,0,0,1,0,3.61q0-.3,0-.33a1.6,1.6,0,0,1,.15-.47,1.23,1.23,0,0,1,.28-.39L2.64.23A.73.73,0,0,1,3.17,0a.62.62,0,0,1,.38.12,1.15,1.15,0,0,1,.28.31L5.6,3.78a.8.8,0,0,1,.08.58,1,1,0,0,1-.28.53l-.81.81a.28.28,0,0,0-.06.11.41.41,0,0,0,0,.12,3,3,0,0,0,.3.79,7.27,7.27,0,0,0,.61,1A10.72,10.72,0,0,0,6.59,9a10.92,10.92,0,0,0,1.32,1.18,7.63,7.63,0,0,0,1,.62,2.57,2.57,0,0,0,.59.24l.21,0,.11,0A.27.27,0,0,0,9.89,11l.94-1a1,1,0,0,1,.69-.26.86.86,0,0,1,.45.1h0l3.18,1.88a.83.83,0,0,1,.41.54Zm0,0"/></svg>