<svg id="圖層_1" data-name="圖層 1" xmlns="http://www.w3.org/2000/svg" viewBox="0 0 422.15 79.12"><defs><style>.cls-1{fill:#fca313;}.cls-2{fill:#fff;}</style></defs><title>section-1-title</title><path class="cls-1" d="M8,23.65,4.5,34.25H0L11.45.55H16.7l11.5,33.7H23.55L20,23.65Zm11.05-3.4-3.3-9.7C15,8.35,14.5,6.35,14,4.4h-.1c-.5,2-1,4.05-1.7,6.1L8.9,20.25Z"/><path class="cls-1" d="M38.15,1a42.16,42.16,0,0,1,8-.7c4.35,0,7.15.75,9.25,2.45a7.07,7.07,0,0,1,2.8,6c0,3.25-2.15,6.1-5.7,7.4v.1c3.2.8,7,3.45,7,8.45a9.08,9.08,0,0,1-2.85,6.75c-2.35,2.15-6.15,3.15-11.65,3.15a50.83,50.83,0,0,1-6.75-.4ZM42.5,14.8h4c4.6,0,7.3-2.4,7.3-5.65,0-4-3-5.5-7.4-5.5A18.67,18.67,0,0,0,42.5,4ZM42.5,31a23.26,23.26,0,0,0,3.65.2c4.5,0,8.65-1.65,8.65-6.55,0-4.6-4-6.5-8.7-6.5H42.5Z"/><path class="cls-1" d="M99.05,17.05C99.05,28.65,92,34.8,83.4,34.8c-8.9,0-15.15-6.9-15.15-17.1C68.25,7,74.9,0,83.9,0,93.1,0,99.05,7.05,99.05,17.05ZM72.9,17.6c0,7.2,3.9,13.65,10.75,13.65s10.8-6.35,10.8-14c0-6.7-3.5-13.7-10.75-13.7S72.9,10.2,72.9,17.6Z"/><path class="cls-1" d="M114,.55v20c0,7.55,3.35,10.75,7.85,10.75,5,0,8.2-3.3,8.2-10.75V.55h4.4V20.2c0,10.35-5.45,14.6-12.75,14.6-6.9,0-12.1-4-12.1-14.4V.55Z"/><path class="cls-1" d="M153.45,4.25H143.2V.55h25v3.7h-10.3v30h-4.4Z"/><path class="cls-1" d="M196.85.55v14.1h16.3V.55h4.4v33.7h-4.4V18.45h-16.3v15.8H192.5V.55Z"/><path class="cls-1" d="M247.55,18.45h-13.1V30.6H249v3.65h-19V.55h18.2V4.2H234.45V14.85h13.1Z"/><path class="cls-1" d="M267.5.55h4.35V23.1c0,9-4.4,11.7-10.2,11.7A14.08,14.08,0,0,1,257,34l.65-3.55a10.38,10.38,0,0,0,3.65.65c3.9,0,6.2-1.75,6.2-8.35Z"/><path class="cls-1" d="M288.45.55v33.7H284.1V.55Z"/><path class="cls-1" d="M301,1A62.34,62.34,0,0,1,310.3.3c6.25,0,10.7,1.45,13.65,4.2s4.75,6.65,4.75,12.1-1.7,10-4.85,13.1-8.35,4.85-14.9,4.85a70.24,70.24,0,0,1-7.9-.4Zm4.35,29.8a27.45,27.45,0,0,0,4.4.25c9.3,0,14.35-5.2,14.35-14.3,0-8-4.45-13-13.65-13a24.72,24.72,0,0,0-5.1.45Z"/><path class="cls-1" d="M344.1,23.65l-3.5,10.6h-4.5L347.55.55h5.25l11.5,33.7h-4.65L356,23.65Zm11-3.4-3.3-9.7c-.75-2.2-1.25-4.2-1.75-6.15H350c-.5,2-1.05,4.05-1.7,6.1L345,20.25Z"/><path class="cls-1" d="M376.8,4.25H366.55V.55h25v3.7H381.2v30h-4.4Z"/><path class="cls-1" d="M401.95,23.65l-3.5,10.6h-4.5L405.4.55h5.25l11.5,33.7H417.5l-3.6-10.6Zm11-3.4-3.3-9.7c-.75-2.2-1.25-4.2-1.75-6.15h-.1c-.5,2-1.05,4.05-1.7,6.1l-3.3,9.75Z"/><path class="cls-2" d="M99.25,63.5h12q0-.15.07-3.78H100.78V56h6.34q-1.68-2.21-2.89-3.63L107.55,50q1.23,1.35,4.16,4.66L109.8,56h5.07a69.81,69.81,0,0,0,4-6L123,52.2,119.85,56h6.5v3.75H115.73q0,1.2,0,3.78h12.11v3.75h-11.4q2.8,5.71,11.63,7.44-2.08,2.7-3,4.07-8.23-2.33-11.53-8.57-2.83,5.43-11.35,8.89-1.38-1.67-3.22-3.72,9.21-2.87,11.54-8.12H99.25Z"/><path class="cls-2" d="M138.28,61.72h12.36v-5.8h-10.2V51.76h24.26v4.16H155.1v5.8h11.69v4.16H155.1v6.42a6.91,6.91,0,0,1-1.19,4.42,4.34,4.34,0,0,1-3.47,1.52q-2.28.05-6.17.07-.41-2.2-1.05-4.45a48.1,48.1,0,0,0,5,.26,2.15,2.15,0,0,0,2.43-2.43v-5.8H138.28Z"/><path class="cls-2" d="M195.21,50.12l-1.05,1.29q4,5.13,11.92,8.5-1.55,2-2.67,3.49a34.68,34.68,0,0,1-3.57-1.93v1.61H183.2V61.34q-1.7,1.11-3.66,2.26a34.81,34.81,0,0,0-2.61-3.46q9.11-4.69,12.71-10Zm-14.59,29V65.53h21.8V79.12h-4V77.77H184.61v1.35Zm17.81-9.79H184.61V74h13.83Zm-6.94-15a32.16,32.16,0,0,1-5.45,5h10.69A33.15,33.15,0,0,1,191.49,54.36Z"/><path class="cls-2" d="M215.87,67a31.64,31.64,0,0,0,3.44-7.91h-3.24V55.33h3.54V50.17h3.72v5.16h3v3.81h-3v2.68q2.14,1.33,3.75,2.5l-1.7,3.52q-.78-.69-2.05-1.68V79h-3.72V66.79a38.76,38.76,0,0,1-2.81,5.63Q216.52,70.39,215.87,67ZM244,59.64v3.49a21.33,21.33,0,0,1-4,8.73A16.23,16.23,0,0,0,245.14,75q-1.67,2.17-2.64,3.69a28.81,28.81,0,0,1-5.07-4,30.47,30.47,0,0,1-6.15,4.42q-1.2-2-2.43-3.6a26.6,26.6,0,0,0,6-3.91,27.8,27.8,0,0,1-3.47-6.47q-1,8.91-5.21,13.87a33.37,33.37,0,0,0-2.72-3.43,14.18,14.18,0,0,0,2.87-4.71,26.25,26.25,0,0,0,1.54-6.37,83.86,83.86,0,0,0,.45-9.25h-2.05v-3.6h16V55l-2.26,4.63Zm-11.89-2a35.29,35.29,0,0,0,5.21,11.19,14.23,14.23,0,0,0,2.55-5.68h-4.25V59.64l2.05-4.39h-5.54Z"/><path class="cls-2" d="M255.64,55.86h2.29a22.79,22.79,0,0,0-2.08-3.34l2.64-1.64q.91,1.08,2.46,3.4l-2.64,1.58h3.28V50.12h3.72v5.74h3.08l-2.43-1.58a27.4,27.4,0,0,0,2.46-3.49l2.75,1.64a26.64,26.64,0,0,1-2.43,3.43h1.7v3H265.3V60.9l1-1.35q1.83,1,3.47,1.93A49.58,49.58,0,0,0,273.92,50l4,.38q-.59,2.27-1.25,4.34H284v3.57h-1.19A32.71,32.71,0,0,1,279.54,71a17.73,17.73,0,0,0,4.6,3.76,23.52,23.52,0,0,0-2.55,3.9,18.53,18.53,0,0,1-4.44-4.16,19.94,19.94,0,0,1-5.61,4.6A26.21,26.21,0,0,0,268.92,76l-1,1.73q-1.76-1-3.84-2.05a21.36,21.36,0,0,1-7.68,3,25,25,0,0,0-1.55-3.6,20.85,20.85,0,0,0,5.39-1.23q-2-.89-4.28-1.82a33.25,33.25,0,0,0,1.79-2.9h-2.4v-3h3.85a24.42,24.42,0,0,0,.83-2.31l1.58.15V61.16a25.49,25.49,0,0,1-5.45,4.25,24.91,24.91,0,0,0-1.38-3.52,19.14,19.14,0,0,0,5.26-3h-4.38Zm5,14.79,3,1.14a9.85,9.85,0,0,0,2.17-2.67h-4.35Zm4.69-6h-1.48q-.34.72-.75,1.49h6.83v2.72A16.88,16.88,0,0,1,267,73.1L270,74.26l-.59,1a18.23,18.23,0,0,0,5.52-4.37,28.1,28.1,0,0,1-2.2-6.59q-.51.92-1,1.77a28.7,28.7,0,0,0-1.57-2.42l-.86,1.3q-1.82-1.23-3.93-2.49Zm9.81-5.55a28.48,28.48,0,0,0,2.05,8.16,25.7,25.7,0,0,0,2.08-9h-3.81Q275.29,58.68,275.12,59.09Z"/><path class="cls-2" d="M294.31,55.59h2.78V50.41h3.54v5.19h2.52v3.75h-2.52v4.1q1.26-.26,2.67-.62-.15,2.34-.12,3.81l-2.55.64v8q0,3.25-2.67,3.34a22.19,22.19,0,0,1-3,.09q-.29-1.73-.85-3.81l2,.06q1,0,1-1.41V68.19l-2.81.73-.32-4,3.13-.64V59.34h-2.78ZM323,66.05h-6.68v2.46h4.92V79h-3.46V77.57h-6.53V79h-3.46V68.51h4.83V66.05h-5.13q-.53,8-3.75,12.74a27.72,27.72,0,0,0-2.64-3q2.93-5.13,2.93-13.92V51.2h17.72v9.17h-5.45V63H323Zm-4.83-8.76v-3H307.64v3ZM312.65,63V60.37h-5V63Zm5.16,8.61h-6.53v2.9h6.53Z"/></svg>