<svg id="圖層_1" data-name="圖層 1" xmlns="http://www.w3.org/2000/svg" viewBox="0 0 444.56 36.8"><defs><style>.cls-1{fill:#fca313;stroke:#fca313;stroke-miterlimit:10;stroke-width:2px;}.cls-2{fill:#020f3f;}</style></defs><title>section-2-title</title><path class="cls-1" d="M26.55,34.15a21.59,21.59,0,0,1-8.9,1.6C8.15,35.75,1,29.75,1,18.7,1,8.15,8.15,1,18.6,1a18.06,18.06,0,0,1,8,1.5l-1,3.55a15.84,15.84,0,0,0-6.8-1.4C10.85,4.65,5.6,9.7,5.6,18.55c0,8.25,4.75,13.55,13,13.55a17.41,17.41,0,0,0,7.1-1.4Z"/><path class="cls-1" d="M64.75,18.05c0,11.6-7,17.75-15.65,17.75-8.9,0-15.15-6.9-15.15-17.1C33.95,8,40.6,1,49.6,1,58.8,1,64.75,8.05,64.75,18.05ZM38.6,18.6c0,7.2,3.9,13.65,10.75,13.65s10.8-6.35,10.8-14c0-6.7-3.5-13.7-10.75-13.7S38.6,11.2,38.6,18.6Z"/><path class="cls-1" d="M75.4,35.25V1.55h4.75L91,18.6a95.34,95.34,0,0,1,6,11l.1-.05c-.4-4.5-.5-8.6-.5-13.85V1.55h4.1v33.7H96.3L85.6,18.15A106.92,106.92,0,0,1,79.3,6.9l-.15,0c.25,4.25.35,8.3.35,13.9v14.4Z"/><path class="cls-1" d="M119.7,5.25H109.45V1.55h25v3.7H124.1v30h-4.4Z"/><path class="cls-1" d="M144.85,24.65l-3.5,10.6h-4.5L148.3,1.55h5.25l11.5,33.7H160.4l-3.6-10.6Zm11-3.4-3.3-9.7c-.75-2.2-1.25-4.2-1.75-6.15h-.1c-.5,2-1.05,4.05-1.7,6.1l-3.3,9.75Z"/><path class="cls-1" d="M197.8,34.15a21.59,21.59,0,0,1-8.9,1.6c-9.5,0-16.65-6-16.65-17.05,0-10.55,7.15-17.7,17.6-17.7a18.06,18.06,0,0,1,8,1.5l-1,3.55a15.84,15.84,0,0,0-6.8-1.4c-7.9,0-13.15,5.05-13.15,13.9,0,8.25,4.75,13.55,13,13.55a17.41,17.41,0,0,0,7.1-1.4Z"/><path class="cls-1" d="M216,5.25H205.8V1.55h25v3.7h-10.3v30H216Z"/><path class="cls-1" d="M238.6,30a15.42,15.42,0,0,0,7.8,2.2c4.45,0,7-2.35,7-5.75,0-3.15-1.8-5-6.35-6.7-5.5-2-8.9-4.8-8.9-9.55C238.2,4.9,242.55,1,249.1,1a15.31,15.31,0,0,1,7.45,1.65l-1.2,3.55a13.42,13.42,0,0,0-6.4-1.6c-4.6,0-6.35,2.75-6.35,5.05,0,3.15,2.05,4.7,6.7,6.5,5.7,2.2,8.6,5,8.6,9.9,0,5.2-3.85,9.7-11.8,9.7a17.42,17.42,0,0,1-8.6-2.15Z"/><path class="cls-2" d="M300.44,32.35l-.67-4,1.52-.18V11.87h-1.23V8.42h12.54v3.46h-1.23V26.67l1.76-.32q-.23,2-.32,3.75l-1.44.25v5.32h-3.52V31Zm4.37-17.43h3v-3h-3Zm0,6.21h3v-3h-3Zm3,6.15v-3h-3v3.46Zm8.79-20.51A45.74,45.74,0,0,1,319.48,11l-2.74,1.38h3.91a62,62,0,0,0,2.93-5.8l3.78,1.64L324.8,12.4h3v3.46H322q0,3,0,4.1h6.8v3.46h-6A13.15,13.15,0,0,0,329,31.68a35.25,35.25,0,0,0-2.31,4,18.47,18.47,0,0,1-6.18-9.87,16.45,16.45,0,0,1-6,10.08q-1.32-1.76-2.87-3.46a13.4,13.4,0,0,0,6.12-9h-5.27V20h5.73q0-.75,0-4.1h-5.07V12.4H316a29.85,29.85,0,0,0-2.37-4.1Z"/><path class="cls-2" d="M343.16,16q1.23-.06,1.76-.06,1.14-2,2.34-4.54L350.71,13q-2.9,5-6.09,10.37,2.2-.29,4.57-.64-.21,2-.23,3.63-6,.79-8.35,1.35l-1.14-3.28A26.37,26.37,0,0,0,343,19.37q-1.67.12-3.11.29l-1.11-3.31q2.08-2.52,5-9.58l3.63,1.41Q345.32,12.2,343.16,16Zm-3.69,18-.67-4.1q3.66-.38,11.1-1.52-.18,2.46-.15,4Q343.21,33.41,339.46,34.08ZM350,14.83a40.58,40.58,0,0,0,5.63-8.06l4,.64q-.67,1.2-1.38,2.29h8.41v3.52a18.12,18.12,0,0,1-4.6,5.45A31.22,31.22,0,0,0,368,20.14a36,36,0,0,0-.88,3.81,34.23,34.23,0,0,1-8.64-3,45.75,45.75,0,0,1-8.55,3,29.89,29.89,0,0,0-1.46-3.49,43.21,43.21,0,0,0,6.65-1.9,17.51,17.51,0,0,1-1.9-2.05l-1.26,1.26A34.53,34.53,0,0,0,350,14.83Zm.85,20.95V23.94H366V35.78H362.2V34.43h-7.5v1.35Zm11.31-8.17h-7.5v3.16h7.5Zm-6.12-14.47-.59.76a13,13,0,0,0,3,3,11.05,11.05,0,0,0,3.63-3.75Z"/><path class="cls-2" d="M378.44,27.4l-.73-4.16q2.71-.23,5.36-.53V19h-5.33V15.21h5.33V12.33l-4.13.31q-.12-1.35-.53-3.75Q385,8.53,391,7.66l.91,3.66q-2.12.32-4.51.59v3.31h5.68l-.38-8.32h4.16q.09,4.26.28,8.32h9.62V19h-9.45a48.47,48.47,0,0,0,.63,5.67,32.46,32.46,0,0,0,4.63-5.35l3.13,2.55a43.49,43.49,0,0,1-6.58,6.77q1.17,2.8,2.64,2.8a1,1,0,0,0,.42-.1q.23-.1.61-1.6a35.54,35.54,0,0,0,.69-3.62,23.24,23.24,0,0,0,3.57,2,17.78,17.78,0,0,1-1.89,6,3.35,3.35,0,0,1-2.94,1.57q-4.22,0-6.45-4.48a55.54,55.54,0,0,1-5.27,3.19,22.12,22.12,0,0,0-2.4-3.43,34.16,34.16,0,0,0,6.37-3.49A49.88,49.88,0,0,1,393.3,19h-5.9V22.2q2.52-.32,5-.69-.09,1.29-.09,2.36,0,.85.06,1.57l-5,.62v5.83a3.75,3.75,0,0,1-.72,2.47,3.66,3.66,0,0,1-2.62,1q-1.9.14-4.45.14a19.21,19.21,0,0,0-1.11-3.87q1.42.12,2.9.12H382a.94.94,0,0,0,.81-.37,2,2,0,0,0,.28-1.16V26.67ZM400.29,7.6q3.4,2.75,5.13,4.45-1.7,1.55-2.75,2.64A44.41,44.41,0,0,0,397.8,10Z"/><path class="cls-2" d="M422.09,6.89,426,8q-.85,2.81-1.85,5.38v22h-3.9v-14q-1.17,1.95-2.46,3.68-.38-2.58-1-5.42A42.17,42.17,0,0,0,422.09,6.89Zm4.8,7.44h3.9V35.4h-3.9Zm0-5.45,3.16-2q2.31,2.84,3.54,4.66l-3.34,2.26Q428.57,11.11,426.93,8.89Zm17.64,20.77a6.72,6.72,0,0,1-1,4.06,4,4,0,0,1-2.93,1.6q-1.88.19-6,.23-.41-2.05-1-4.13,1.7.1,3.21.1a10.29,10.29,0,0,0,2.36-.18,1.86,1.86,0,0,0,1.1-.86,3.32,3.32,0,0,0,.42-1.79V12.61h-5.92V8.68h9.81Z"/></svg>