<svg id="圖層_1" data-name="圖層 1" xmlns="http://www.w3.org/2000/svg" viewBox="0 0 65.67 65.67"><defs><style>.cls-1{fill:#fca313;}.cls-2{fill:#fff;}</style></defs><title>gotop</title><circle class="cls-1" cx="32.83" cy="32.83" r="32.83"/><path class="cls-2" d="M22.63,32.53v2.35H20.12v11H17.51v-11H15V32.53Z"/><path class="cls-2" d="M25.15,39.18a7.18,7.18,0,0,1,.29-2.08,6.67,6.67,0,0,1,.87-1.83A6.85,6.85,0,0,1,28.8,33a6.92,6.92,0,0,1,3.27-.78,6.61,6.61,0,0,1,2.56.51,6.86,6.86,0,0,1,2.21,1.48,7,7,0,0,1,1.52,2.25,6.72,6.72,0,0,1,.52,2.62,7.32,7.32,0,0,1-.49,2.69A6.56,6.56,0,0,1,36.95,44,6.65,6.65,0,0,1,34.7,45.6a6.75,6.75,0,0,1-2.67.55,7,7,0,0,1-2.75-.53A6.46,6.46,0,0,1,27,44a6.84,6.84,0,0,1-1.42-2.22A7.19,7.19,0,0,1,25.15,39.18Zm2.74-.09a4.45,4.45,0,0,0,.28,1.61A4.27,4.27,0,0,0,29,42a4.4,4.4,0,0,0,1.39,1,3.79,3.79,0,0,0,1.61.36A3.9,3.9,0,0,0,35,42.2a4.33,4.33,0,0,0,1.19-3.11A4,4,0,0,0,35,36.17,3.91,3.91,0,0,0,32.09,35a4.08,4.08,0,0,0-3,1.2A3.94,3.94,0,0,0,27.89,39.09Z"/><path class="cls-2" d="M45,45.88H42.4V32.53h3.32a11.3,11.3,0,0,1,2,.14,3.15,3.15,0,0,1,1.18.44,3.92,3.92,0,0,1,1.3,1.48,4.23,4.23,0,0,1,.47,2,3.93,3.93,0,0,1-1.27,3.06A4.89,4.89,0,0,1,46,40.76H45Zm0-7.38h.69A2.6,2.6,0,0,0,47.38,38,1.64,1.64,0,0,0,48,36.67a1.62,1.62,0,0,0-.56-1.35,2.74,2.74,0,0,0-1.71-.44H45Z"/><polygon class="cls-2" points="32.83 16.91 23.26 27.09 42.4 27.09 32.83 16.91"/></svg>