<svg id="圖層_1" data-name="圖層 1" xmlns="http://www.w3.org/2000/svg" viewBox="0 0 151.27 29.15"><defs><style>.cls-1{fill:#fca313;}.cls-2{fill:#fff;}</style></defs><title>sendmessage</title><rect class="cls-1" width="151.27" height="29.15" rx="14.58" ry="14.58"/><path class="cls-2" d="M25.89,17.43a3.77,3.77,0,0,0,2.46.85q1.8,0,1.8-1.24a1.1,1.1,0,0,0-.2-.64,1.84,1.84,0,0,0-.54-.5q-.34-.21-1.33-.69A4.94,4.94,0,0,1,26.37,14a2.19,2.19,0,0,1-.49-1.42,2.16,2.16,0,0,1,.93-1.85,3.92,3.92,0,0,1,2.37-.67,5,5,0,0,1,2.06.33v1.44a3.59,3.59,0,0,0-2.09-.58,2.33,2.33,0,0,0-1.29.32,1,1,0,0,0-.49.88,1.08,1.08,0,0,0,.36.84,7.07,7.07,0,0,0,1.52.88,5.33,5.33,0,0,1,1.87,1.27,2.25,2.25,0,0,1,.52,1.46,2.19,2.19,0,0,1-.89,1.88,4.11,4.11,0,0,1-2.47.65A6.68,6.68,0,0,1,27,19.32a3.37,3.37,0,0,1-1.09-.37Z"/><path class="cls-2" d="M39,19.31h-5V10.23h4.82v1.21H35.33v2.67H38.5v1.2H35.33V18.1H39Z"/><path class="cls-2" d="M48.82,19.31H47.25l-4.34-6.69a4.06,4.06,0,0,1-.35-.64h0a10.74,10.74,0,0,1,.05,1.32v6H41.21V10.23h1.66l4.21,6.56q.3.47.4.65h0a9.47,9.47,0,0,1-.06-1.3V10.23h1.37Z"/><path class="cls-2" d="M51.69,19.31V10.23h2.75q4.8,0,4.8,4.42A4.39,4.39,0,0,1,57.88,18a5,5,0,0,1-3.51,1.26Zm1.41-7.87V18.1h1.24a3.45,3.45,0,0,0,2.52-.9,3.36,3.36,0,0,0,.92-2.52,3.18,3.18,0,0,0-.87-2.42,3.54,3.54,0,0,0-2.53-.83Z"/><path class="cls-2" d="M73.38,19.31V13.45q0-.77.08-1.82h0a7.46,7.46,0,0,1-.28,1l-2.76,6.69h-.92L66.7,12.67a7.26,7.26,0,0,1-.28-1h0q.06.82.06,2v5.7H65.14V10.23h2l2.46,6a6.81,6.81,0,0,1,.38,1.17h0q.11-.37.41-1.18l2.5-6h1.89v9.08Z"/><path class="cls-2" d="M82.68,19.31h-5V10.23h4.82v1.21H79.06v2.67h3.17v1.2H79.06V18.1h3.62Z"/><path class="cls-2" d="M84.51,17.43a3.77,3.77,0,0,0,2.46.85q1.8,0,1.8-1.24a1.1,1.1,0,0,0-.2-.64,1.84,1.84,0,0,0-.54-.5q-.34-.21-1.33-.69A4.94,4.94,0,0,1,85,14a2.19,2.19,0,0,1-.49-1.42,2.16,2.16,0,0,1,.93-1.85,3.92,3.92,0,0,1,2.37-.67,5,5,0,0,1,2.06.33v1.44a3.59,3.59,0,0,0-2.09-.58,2.33,2.33,0,0,0-1.29.32,1,1,0,0,0-.49.88,1.08,1.08,0,0,0,.36.84,7.07,7.07,0,0,0,1.52.88,5.33,5.33,0,0,1,1.87,1.27,2.25,2.25,0,0,1,.52,1.46,2.19,2.19,0,0,1-.89,1.88,4.11,4.11,0,0,1-2.47.65,6.68,6.68,0,0,1-1.29-.14,3.37,3.37,0,0,1-1.09-.37Z"/><path class="cls-2" d="M92.12,17.43a3.77,3.77,0,0,0,2.46.85q1.8,0,1.8-1.24a1.1,1.1,0,0,0-.2-.64,1.84,1.84,0,0,0-.54-.5q-.34-.21-1.33-.69A4.94,4.94,0,0,1,92.6,14a2.19,2.19,0,0,1-.49-1.42A2.16,2.16,0,0,1,93,10.76a3.92,3.92,0,0,1,2.37-.67,5,5,0,0,1,2.06.33v1.44a3.59,3.59,0,0,0-2.09-.58,2.33,2.33,0,0,0-1.29.32,1,1,0,0,0-.49.88,1.08,1.08,0,0,0,.36.84,7.07,7.07,0,0,0,1.52.88,5.33,5.33,0,0,1,1.87,1.27,2.25,2.25,0,0,1,.52,1.46A2.19,2.19,0,0,1,97,18.81a4.11,4.11,0,0,1-2.47.65,6.68,6.68,0,0,1-1.29-.14,3.37,3.37,0,0,1-1.09-.37Z"/><path class="cls-2" d="M107.52,19.31H106l-.85-2.36h-3.63l-.81,2.36H99.13l3.42-9.08h1.56Zm-2.79-3.53-1.27-3.58a3.91,3.91,0,0,1-.14-.69h0a3.44,3.44,0,0,1-.15.67l-1.26,3.59Z"/><path class="cls-2" d="M116.23,18.69a6.27,6.27,0,0,1-3.13.77,4.36,4.36,0,0,1-3.25-1.24,4.53,4.53,0,0,1-1.22-3.33,4.63,4.63,0,0,1,4.83-4.82,6.3,6.3,0,0,1,2.51.45V12a4.85,4.85,0,0,0-2.6-.66,3.09,3.09,0,0,0-2.35,1,3.54,3.54,0,0,0-.91,2.54,3.56,3.56,0,0,0,.84,2.52,3,3,0,0,0,2.28.91,3.33,3.33,0,0,0,1.6-.35V15.62h-1.93v-1.2h3.34Z"/><path class="cls-2" d="M123.84,19.31h-5V10.23h4.82v1.21h-3.42v2.67h3.17v1.2h-3.17V18.1h3.62Z"/></svg>